<svg width="59" height="52" viewBox="0 0 59 52" fill="none" xmlns="http://www.w3.org/2000/svg">
    <path d="M32.3287 13.7397C32.3287 19.5424 27.4437 24.2466 21.4178 24.2466C15.3919 24.2466 10.5068 19.5425 10.5068 13.7397C10.5068 7.93703 15.3919 3.23291 21.4178 3.23291C27.4437 3.23291 32.3287 7.93703 32.3287 13.7397Z" fill="#97C8BB"/>
    <path d="M42.0274 51.726C42.0274 51.726 42.0274 51.726 42.0274 37.3064C42.0274 25.4589 30.4938 23.4384 30.4938 23.4384C28.141 25.6885 25.004 27.0202 21.4979 27.0202C18.0379 27.0202 14.8547 25.6426 12.502 23.4384C5.48975 24.1731 0 30.0971 0 37.3064V51.726H31.0016C36.7739 51.726 42.0274 51.726 42.0274 51.726Z" fill="#97C8BB"/>
    <path d="M54.7264 4.31187e-05H38.219C37.0859 0.00126961 35.9997 0.458769 35.1984 1.27206C34.3972 2.08535 33.9465 3.18797 33.9453 4.33812V13.4855C33.9465 14.5134 34.3067 15.5074 34.9618 16.2911C35.6168 17.0749 36.5242 17.5975 37.523 17.7663V23.4383L43.054 17.8236L54.7264 17.8237C55.8595 17.8224 56.9457 17.3649 57.747 16.5517C58.5482 15.7384 58.9989 14.6358 59.0001 13.4855V4.33807C58.9989 3.18792 58.5482 2.08534 57.747 1.27201C56.9458 0.458687 55.8595 0.00121667 54.7264 0V4.31187e-05ZM40.905 10.1259C40.5359 10.1259 40.1818 9.97705 39.9207 9.71213C39.6597 9.44705 39.5131 9.0877 39.5131 8.713C39.5131 8.33831 39.6597 7.97896 39.9207 7.71388C40.1818 7.44896 40.5359 7.30009 40.905 7.30009C41.2741 7.30009 41.6281 7.44896 41.8893 7.71388C42.1503 7.97895 42.2969 8.33831 42.2969 8.713C42.2965 9.08754 42.1498 9.44674 41.8888 9.71166C41.6278 9.97658 41.274 10.1254 40.905 10.1259ZM46.4727 10.1259C46.1036 10.1259 45.7496 9.97705 45.4884 9.71213C45.2274 9.44705 45.0808 9.0877 45.0808 8.713C45.0808 8.33831 45.2274 7.97896 45.4884 7.71388C45.7496 7.44896 46.1036 7.30009 46.4727 7.30009C46.8418 7.30009 47.1958 7.44896 47.457 7.71388C47.718 7.97895 47.8646 8.33831 47.8646 8.713C47.8642 9.08754 47.7175 9.44674 47.4565 9.71166C47.1955 9.97658 46.8417 10.1254 46.4727 10.1259ZM52.0404 10.1259C51.6713 10.1259 51.3173 9.97705 51.0561 9.71213C50.7951 9.44705 50.6485 9.0877 50.6485 8.713C50.6485 8.33831 50.7951 7.97896 51.0561 7.71388C51.3173 7.44896 51.6713 7.30009 52.0404 7.30009C52.4095 7.30009 52.7636 7.44896 53.0247 7.71388C53.2857 7.97895 53.4323 8.33831 53.4323 8.713C53.4319 9.08754 53.2852 9.44674 53.0242 9.71166C52.7632 9.97658 52.4094 10.1254 52.0404 10.1259Z" fill="#97C8BB"/>
</svg>
