<svg width="61" height="38" viewBox="0 0 61 38" fill="none" xmlns="http://www.w3.org/2000/svg">
    <path d="M45.2609 31.2052C39.7409 8.23505 15.2518 15.0663 15.5058 36.5512C15.5068 36.8668 15.6323 37.1691 15.8547 37.3921C16.0772 37.6151 16.3786 37.7406 16.6934 37.7416H44.6316C44.9464 37.7406 45.248 37.6148 45.4705 37.3918C45.6929 37.1689 45.8184 36.8665 45.8194 36.551C45.8167 34.7547 45.6296 32.9633 45.2611 31.2051L45.2609 31.2052ZM49.0739 16.9179C46.4839 16.9489 44.0045 17.9761 42.1489 19.7873C45.5276 23.6404 47.588 28.4759 48.0288 33.5863H59.8122C60.127 33.5853 60.4286 33.4595 60.6511 33.2365C60.8736 33.0135 60.9991 32.7112 61 32.3957C61 23.8589 55.6546 16.9179 49.0739 16.9179ZM17.6792 21.6446C18.1355 20.9923 18.6357 20.3717 19.1759 19.7873C10.7253 12.1573 0.113912 20.8181 0.324874 32.3957C0.325616 32.7112 0.451083 33.0136 0.673556 33.2365C0.896028 33.4598 1.19769 33.5853 1.51246 33.5863H13.2839C13.6924 29.2914 15.2069 25.1765 17.6789 21.6446L17.6792 21.6446Z" fill="#97C8BB"/>
    <circle cx="30.4752" cy="7.77362" r="7.5152" fill="#97C8BB"/>
    <circle cx="48.2892" cy="9.2581" r="5.65959" fill="#97C8BB"/>
    <circle cx="12.6615" cy="9.2581" r="5.65959" fill="#97C8BB"/>
</svg>
