<svg width="60" height="60" viewBox="0 0 60 60" fill="none" xmlns="http://www.w3.org/2000/svg">
    <path d="M33.333 10.8333C33.333 16.8163 28.2962 21.6667 22.083 21.6667C15.8699 21.6667 10.833 16.8164 10.833 10.8333C10.833 4.85029 15.8699 0 22.083 0C28.2962 0 33.333 4.85029 33.333 10.8333Z" fill="#97C8BB"/>
    <path d="M33.2968 33.6175C35.7703 31.108 39.0526 29.7349 42.5723 29.7349H43.3333C41.3355 24.9053 36.8642 21.4016 31.4413 20.8334C29.0155 23.1535 25.781 24.5266 22.1659 24.5266C18.5984 24.5266 15.3163 23.1061 12.8905 20.8334C5.66034 21.5909 0 27.699 0 35.1324V50H31.965C28.4926 45.0284 28.8731 38.1157 33.2968 33.6172V33.6175Z" fill="#97C8BB"/>
    <path d="M59.3061 56.0028L51.0976 47.7958C53.6598 43.7161 53.1378 38.308 49.6268 34.7502C45.4989 30.6231 38.7141 30.6231 34.6334 34.8451C30.6003 38.9723 30.6953 45.7087 34.8232 49.7412C38.3817 53.2042 43.7433 53.6312 47.7764 51.1169L55.985 59.324C56.8864 60.2253 58.4048 60.2253 59.3063 59.324C60.2078 58.4227 60.2552 56.9046 59.3063 56.0033L59.3061 56.0028ZM47.3018 47.3217C44.5024 50.1205 39.9 50.1205 37.0532 47.3217C34.2538 44.5228 34.2538 39.9212 37.0532 37.0749C39.8526 34.276 44.455 34.276 47.3018 37.0749C50.1487 39.9212 50.1487 44.5229 47.3018 47.3217Z" fill="#97C8BB"/>
</svg>
