<?xml version="1.0" encoding="UTF-8"?><svg id="Layer_2" xmlns="http://www.w3.org/2000/svg" xmlns:xlink="http://www.w3.org/1999/xlink" viewBox="0 0 513 342.24"><defs><style>.cls-1{fill:#fff;}.cls-2{fill:#d03433;}.cls-3{fill:#fbca46;}.cls-4{clip-path:url(#clippath);}.cls-5{fill:none;}.cls-6{fill:#a41517;}</style><clipPath id="clippath"><rect class="cls-5" width="513" height="342"/></clipPath></defs><g id="Layer_1-2"><g class="cls-4"><g><path class="cls-1" d="M0,.24H512V342.24H0V.24Z"/><path class="cls-2" d="M0,.24H512V91.44H0V.24ZM0,251.04H512v91.2H0v-91.2Z"/><path class="cls-3" d="M0,91.24H512V251.24H0V91.24Z"/><path class="cls-1" d="M177.49,159.84h22.76v11.4h-22.76v-11.4Z"/><path class="cls-6" d="M163.84,194.04c0,6.84,6.83,11.4,13.65,11.4s13.66-4.56,13.66-11.4l2.27-34.2h-31.85l2.28,34.2Zm-13.65-34.2c0-6.84,4.55-11.4,9.1-11.4h34.13c6.83,0,11.38,4.56,11.38,9.12v2.28l-2.28,34.2c-2.27,13.68-11.37,22.8-25.03,22.8s-22.76-9.12-25.03-22.8l-2.27-34.2Z"/><path class="cls-6" d="M154.74,171.24h45.51v11.4h-11.38l-11.38,22.8-11.38-22.8h-11.38v-11.4Zm-34.13-34.2h22.76v79.8h-22.76v-79.8Zm91.03,0h22.75v79.8h-22.75v-79.8Zm-56.89-11.4c0-6.84,4.55-11.4,11.38-11.4h22.75c6.83,0,11.38,4.56,11.38,11.4v4.56c0,4.56-2.28,6.84-6.83,6.84h-34.13c-2.28,0-4.55-2.28-4.55-4.56v-6.84Z"/></g></g></g></svg>