<?xml version="1.0" encoding="UTF-8"?><svg id="Layer_2" xmlns="http://www.w3.org/2000/svg" xmlns:xlink="http://www.w3.org/1999/xlink" viewBox="0 0 513 342.01"><defs><style>.cls-1{fill:#fff;}.cls-2{fill:#d80027;}.cls-3{clip-path:url(#clippath);}.cls-4{fill:none;}.cls-5{fill:#0052b4;}</style><clipPath id="clippath"><rect class="cls-4" y=".01" width="513" height="342"/></clipPath></defs><g id="Layer_1-2"><g class="cls-3"><g><path class="cls-1" d="M0,.01H513V342.01H0V.01Z"/><path class="cls-2" d="M288.56,0h-64.12V138.94H0v64.13H224.44v138.93h64.12V203.07h224.44v-64.13h-224.44V0Z"/><path class="cls-5" d="M394.55,230.48l118.45,65.81v-65.81h-118.45Zm-82.29,0l200.74,111.52v-31.53l-143.97-79.99h-56.77Zm147.27,111.52l-147.27-81.82v81.82h147.27Z"/><path class="cls-1" d="M312.26,230.48l200.74,111.52v-31.53l-143.97-79.99h-56.77Z"/><path class="cls-2" d="M312.26,230.48l200.74,111.52v-31.53l-143.97-79.99h-56.77Z"/><path class="cls-5" d="M90.52,230.48L0,280.77v-50.29H90.52Zm110.22,14.18v97.34H25.54l175.2-97.34Z"/><path class="cls-2" d="M143.97,230.48L0,310.47v31.53l200.74-111.52h-56.77Z"/><path class="cls-5" d="M118.45,111.52L0,45.72V111.52H118.45Zm82.29,0L0,0V31.54L143.97,111.52h56.77ZM53.47,0L200.74,81.83V0H53.47Z"/><path class="cls-1" d="M200.74,111.52L0,0V31.54L143.97,111.52h56.77Z"/><path class="cls-2" d="M200.74,111.52L0,0V31.54L143.97,111.52h56.77Z"/><path class="cls-5" d="M422.48,111.53l90.52-50.29v50.29h-90.52Zm-110.22-14.18V0h175.2l-175.2,97.35Z"/><path class="cls-2" d="M369.03,111.52L513,31.54V0l-200.74,111.52h56.77Z"/></g></g></g></svg>