<?xml version="1.0" encoding="UTF-8"?><svg id="Layer_2" xmlns="http://www.w3.org/2000/svg" xmlns:xlink="http://www.w3.org/1999/xlink" viewBox="0 0 513 342"><defs><style>.cls-1{fill:#fff;}.cls-2{clip-path:url(#clippath);}.cls-3{fill:none;}.cls-4{fill:#e30a17;}</style><clipPath id="clippath"><rect class="cls-3" width="513" height="342"/></clipPath></defs><g id="Layer_1-2"><g class="cls-2"><g><path class="cls-4" d="M0,0H513V342H0V0Z"/><path class="cls-1" d="M259.7,118.6c-13.1-9.5-29-14.6-45.3-14.5-40.8,0-73.8,30.8-73.8,68.9s33.1,68.9,73.8,68.9c17.1,0,32.9-5.4,45.3-14.5-30,38.6-85.7,45.6-124.3,15.5-38.6-30.1-45.6-85.7-15.5-124.3,30.1-38.6,85.7-45.6,124.3-15.5,5.8,4.5,11,9.8,15.5,15.5Zm39.9,65.8l-18.1,21.9,1.2-28.4-26.4-10.4,27.3-7.6,1.8-28.3,15.6,23.7,27.5-7.1-17.5,22,15.3,23.9-26.7-9.7Z"/></g></g></g></svg>