<?xml version="1.0" encoding="UTF-8"?><svg id="Layer_2" xmlns="http://www.w3.org/2000/svg" xmlns:xlink="http://www.w3.org/1999/xlink" viewBox="0 0 24 24"><defs><style>.cls-1{clip-path:url(#clippath);}.cls-2,.cls-3{fill:none;}.cls-3{stroke:#98c8bc;stroke-linecap:round;stroke-linejoin:round;stroke-width:2px;}</style><clipPath id="clippath"><rect class="cls-2" width="24" height="24"/></clipPath></defs><g id="Layer_1-2"><g class="cls-1"><path class="cls-3" d="M16,7c0,1.06-.42,2.08-1.17,2.83-.75,.75-1.77,1.17-2.83,1.17s-2.08-.42-2.83-1.17c-.75-.75-1.17-1.77-1.17-2.83s.42-2.08,1.17-2.83c.75-.75,1.77-1.17,2.83-1.17s2.08,.42,2.83,1.17c.75,.75,1.17,1.77,1.17,2.83h0Zm-4,7c-1.86,0-3.64,.74-4.95,2.05-1.31,1.31-2.05,3.09-2.05,4.95h14c0-1.86-.74-3.64-2.05-4.95-1.31-1.31-3.09-2.05-4.95-2.05h0Z"/></g></g></svg>