<?xml version="1.0" encoding="UTF-8"?><svg id="Layer_2" xmlns="http://www.w3.org/2000/svg" viewBox="0 0 22 20"><defs><style>.cls-1{fill:none;stroke:#fff;stroke-linecap:round;stroke-linejoin:round;stroke-width:2px;}</style></defs><g id="Layer_1-2"><g><path class="cls-1" d="M12,5c0,1.06-.42,2.08-1.17,2.83-.75,.75-1.77,1.17-2.83,1.17s-2.08-.42-2.83-1.17c-.75-.75-1.17-1.77-1.17-2.83s.42-2.08,1.17-2.83c.75-.75,1.77-1.17,2.83-1.17s2.08,.42,2.83,1.17c.75,.75,1.17,1.77,1.17,2.83h0Zm-4,7c-1.86,0-3.64,.74-4.95,2.05-1.31,1.31-2.05,3.09-2.05,4.95H15c0-1.86-.74-3.64-2.05-4.95-1.31-1.31-3.09-2.05-4.95-2.05h0Z"/><line class="cls-1" x1="18" y1="6" x2="18" y2="12"/><line class="cls-1" x1="21" y1="9" x2="15" y2="9"/></g></g></svg>