<?xml version="1.0" encoding="UTF-8"?><svg id="Layer_2" xmlns="http://www.w3.org/2000/svg" xmlns:xlink="http://www.w3.org/1999/xlink" viewBox="0 0 24 24"><defs><style>.cls-1{fill:#fff;fill-rule:evenodd;}.cls-2{clip-path:url(#clippath);}.cls-3{fill:none;}</style><clipPath id="clippath"><rect class="cls-3" width="24" height="24"/></clipPath></defs><g id="Layer_1-2"><g class="cls-2"><path class="cls-1" d="M15.63,8.16s.07,.08,.13,.08c1.6,0,2.91,1.31,2.91,2.9v3.96c0,1.6-1.31,2.9-2.91,2.9h-7.52c-1.61,0-2.91-1.31-2.91-2.9v-3.96c0-1.6,1.3-2.9,2.91-2.9,.05,0,.11-.03,.13-.08l.04-.08s.05-.1,.07-.15c.17-.36,.36-.76,.48-.99,.31-.6,.83-.93,1.47-.94h3.14c.65,0,1.17,.34,1.48,.94,.1,.21,.26,.55,.42,.87,.03,.07,.06,.13,.09,.2l.07,.15Zm-.49,2.56c0,.33,.27,.6,.6,.6s.61-.27,.61-.6-.27-.61-.61-.61-.6,.27-.6,.61Zm-4.29,1.03c.31-.31,.72-.48,1.15-.48s.84,.17,1.15,.47c.31,.31,.47,.71,.47,1.15,0,.89-.73,1.62-1.62,1.62-.43,0-.84-.17-1.15-.47-.31-.31-.47-.71-.47-1.15h0c0-.43,.16-.83,.47-1.14Zm3,2.99c-.47,.47-1.13,.77-1.85,.77s-1.35-.27-1.85-.77c-.49-.5-.77-1.15-.77-1.85,0-.69,.27-1.35,.76-1.84,.5-.5,1.16-.77,1.86-.77s1.36,.27,1.85,.77c.49,.5,.77,1.16,.77,1.85,0,.73-.3,1.38-.77,1.85Z"/></g></g></svg>