<svg width="104" height="104" viewBox="0 0 104 104" fill="none" xmlns="http://www.w3.org/2000/svg">
    <g opacity="0.1">
        <path d="M52 12.5C48.5388 12.5 45.1554 13.5264 42.2775 15.4493C39.3997 17.3722 37.1566 20.1053 35.8321 23.303C34.5076 26.5007 34.161 30.0194 34.8363 33.4141C35.5115 36.8087 37.1782 39.9269 39.6256 42.3744C42.0731 44.8218 45.1913 46.4885 48.5859 47.1637C51.9806 47.839 55.4993 47.4924 58.697 46.1679C61.8947 44.8434 64.6278 42.6003 66.5507 39.7225C68.4737 36.8446 69.5 33.4612 69.5 30C69.5 25.3587 67.6563 20.9075 64.3744 17.6256C61.0925 14.3437 56.6413 12.5 52 12.5V12.5ZM46.375 23.75C46.9931 23.75 47.5973 23.9333 48.1112 24.2767C48.6251 24.62 49.0256 25.1081 49.2621 25.6791C49.4987 26.2501 49.5605 26.8785 49.44 27.4847C49.3194 28.0908 49.0218 28.6477 48.5847 29.0847C48.1477 29.5217 47.5909 29.8194 46.9847 29.94C46.3785 30.0605 45.7501 29.9986 45.1791 29.7621C44.6081 29.5256 44.12 29.1251 43.7767 28.6112C43.4333 28.0973 43.25 27.4931 43.25 26.875C43.2467 26.4637 43.3252 26.0558 43.4811 25.6752C43.637 25.2945 43.867 24.9487 44.1579 24.6579C44.4487 24.367 44.7945 24.137 45.1752 23.9811C45.5558 23.8252 45.9637 23.7467 46.375 23.75V23.75ZM52 40C50.2322 40.0019 48.4946 39.5414 46.9597 38.6643C45.4248 37.7872 44.1459 36.524 43.25 35H60.75C59.8541 36.524 58.5752 37.7872 57.0403 38.6643C55.5054 39.5414 53.7678 40.0019 52 40V40ZM57.625 30C57.0069 30 56.4028 29.8167 55.8889 29.4733C55.3749 29.13 54.9744 28.6419 54.7379 28.0709C54.5014 27.4999 54.4395 26.8715 54.5601 26.2653C54.6806 25.6592 54.9783 25.1023 55.4153 24.6653C55.8523 24.2283 56.4092 23.9306 57.0153 23.81C57.6215 23.6895 58.2499 23.7514 58.8209 23.9879C59.3919 24.2244 59.88 24.6249 60.2234 25.1388C60.5667 25.6527 60.75 26.2569 60.75 26.875C60.7533 27.2863 60.6748 27.6942 60.5189 28.0748C60.363 28.4555 60.133 28.8013 59.8421 29.0921C59.5513 29.383 59.2055 29.613 58.8248 29.7689C58.4442 29.9248 58.0363 30.0033 57.625 30Z" fill="#63837B"/>
    </g>
    <rect x="19" y="64" width="66" height="28" rx="14" fill="#98C8BC"/>
    <g clip-path="url(#clip0_2_793)">
        <path d="M35 73.3334V82.6667" stroke="white" stroke-width="2" stroke-linecap="round" stroke-linejoin="round"/>
        <path d="M30.3333 78H39.6666" stroke="white" stroke-width="2" stroke-linecap="round" stroke-linejoin="round"/>
    </g>
    <path d="M51.9082 74.5576L49.0713 83H47.082L50.8008 73.0469H52.0723L51.9082 74.5576ZM54.2803 83L51.4297 74.5576L51.2588 73.0469H52.5371L56.2764 83H54.2803ZM54.1504 79.3018V80.7852H48.8115V79.3018H54.1504ZM61.6016 81.4277V72.5H63.4199V83H61.7793L61.6016 81.4277ZM56.8506 79.3906V79.2471C56.8506 78.682 56.9144 78.1693 57.042 77.709C57.1742 77.2441 57.3656 76.8454 57.6162 76.5127C57.8669 76.18 58.1699 75.9225 58.5254 75.7402C58.8854 75.5579 59.2933 75.4668 59.749 75.4668C60.1911 75.4668 60.5762 75.5557 60.9043 75.7334C61.237 75.9111 61.5195 76.1641 61.752 76.4922C61.9889 76.8203 62.1781 77.21 62.3193 77.6611C62.4606 78.1077 62.5632 78.5999 62.627 79.1377V79.5273C62.5632 80.0514 62.4606 80.5322 62.3193 80.9697C62.1781 81.4072 61.9889 81.79 61.752 82.1182C61.5195 82.4417 61.237 82.6924 60.9043 82.8701C60.5716 83.0479 60.182 83.1367 59.7354 83.1367C59.2842 83.1367 58.8786 83.0433 58.5186 82.8564C58.1631 82.6696 57.86 82.4076 57.6094 82.0703C57.3633 81.7331 57.1742 81.3366 57.042 80.8809C56.9144 80.4251 56.8506 79.9284 56.8506 79.3906ZM58.6621 79.2471V79.3906C58.6621 79.7096 58.6895 80.0081 58.7441 80.2861C58.7988 80.5641 58.8877 80.8102 59.0107 81.0244C59.1338 81.234 59.291 81.3981 59.4824 81.5166C59.6784 81.6351 59.9154 81.6943 60.1934 81.6943C60.5488 81.6943 60.8405 81.6169 61.0684 81.4619C61.3008 81.3024 61.4808 81.0859 61.6084 80.8125C61.736 80.5345 61.818 80.2223 61.8545 79.876V78.8027C61.8363 78.5293 61.7884 78.2764 61.7109 78.0439C61.638 77.8115 61.5332 77.611 61.3965 77.4424C61.2643 77.2738 61.1003 77.1416 60.9043 77.0459C60.7083 76.9502 60.4759 76.9023 60.207 76.9023C59.929 76.9023 59.6921 76.9639 59.4961 77.0869C59.3001 77.2054 59.1406 77.3717 59.0176 77.5859C58.8945 77.8001 58.8034 78.0485 58.7441 78.3311C58.6895 78.6136 58.6621 78.9189 58.6621 79.2471ZM69.4902 81.4277V72.5H71.3086V83H69.668L69.4902 81.4277ZM64.7393 79.3906V79.2471C64.7393 78.682 64.8031 78.1693 64.9307 77.709C65.0628 77.2441 65.2542 76.8454 65.5049 76.5127C65.7555 76.18 66.0586 75.9225 66.4141 75.7402C66.7741 75.5579 67.182 75.4668 67.6377 75.4668C68.0798 75.4668 68.4648 75.5557 68.793 75.7334C69.1257 75.9111 69.4082 76.1641 69.6406 76.4922C69.8776 76.8203 70.0667 77.21 70.208 77.6611C70.3493 78.1077 70.4518 78.5999 70.5156 79.1377V79.5273C70.4518 80.0514 70.3493 80.5322 70.208 80.9697C70.0667 81.4072 69.8776 81.79 69.6406 82.1182C69.4082 82.4417 69.1257 82.6924 68.793 82.8701C68.4603 83.0479 68.0706 83.1367 67.624 83.1367C67.1729 83.1367 66.7673 83.0433 66.4072 82.8564C66.0518 82.6696 65.7487 82.4076 65.498 82.0703C65.252 81.7331 65.0628 81.3366 64.9307 80.8809C64.8031 80.4251 64.7393 79.9284 64.7393 79.3906ZM66.5508 79.2471V79.3906C66.5508 79.7096 66.5781 80.0081 66.6328 80.2861C66.6875 80.5641 66.7764 80.8102 66.8994 81.0244C67.0225 81.234 67.1797 81.3981 67.3711 81.5166C67.5671 81.6351 67.804 81.6943 68.082 81.6943C68.4375 81.6943 68.7292 81.6169 68.957 81.4619C69.1895 81.3024 69.3695 81.0859 69.4971 80.8125C69.6247 80.5345 69.7067 80.2223 69.7432 79.876V78.8027C69.7249 78.5293 69.6771 78.2764 69.5996 78.0439C69.5267 77.8115 69.4219 77.611 69.2852 77.4424C69.153 77.2738 68.9889 77.1416 68.793 77.0459C68.597 76.9502 68.3646 76.9023 68.0957 76.9023C67.8177 76.9023 67.5807 76.9639 67.3848 77.0869C67.1888 77.2054 67.0293 77.3717 66.9062 77.5859C66.7832 77.8001 66.6921 78.0485 66.6328 78.3311C66.5781 78.6136 66.5508 78.9189 66.5508 79.2471Z" fill="white"/>
    <defs>
        <clipPath id="clip0_2_793">
            <rect width="16" height="16" fill="white" transform="translate(27 70)"/>
        </clipPath>
    </defs>
</svg>
