<?xml version="1.0" encoding="UTF-8"?><svg id="Layer_2" xmlns="http://www.w3.org/2000/svg" viewBox="0 0 20 20"><defs><style>.cls-1{fill:none;stroke:#fff;stroke-linecap:round;stroke-linejoin:round;stroke-width:2px;}</style></defs><g id="Layer_1-2"><path class="cls-1" d="M10,2.35c.54-.61,1.25-1.04,2.04-1.24,.79-.2,1.62-.15,2.38,.14,.76,.29,1.41,.8,1.88,1.47,.46,.67,.71,1.46,.71,2.27s-.25,1.61-.71,2.27c-.46,.67-1.12,1.18-1.88,1.47-.76,.29-1.59,.34-2.38,.14-.79-.2-1.5-.63-2.04-1.24m3,11.35H1v-1c0-1.59,.63-3.12,1.76-4.24,1.13-1.13,2.65-1.76,4.24-1.76s3.12,.63,4.24,1.76c1.13,1.13,1.76,2.65,1.76,4.24v1Zm0,0h6v-1c0-1.05-.28-2.09-.8-3-.53-.91-1.28-1.67-2.2-2.2-.91-.53-1.95-.8-3-.8-1.05,0-2.09,.28-3,.8m1-7.8c0,1.06-.42,2.08-1.17,2.83-.75,.75-1.77,1.17-2.83,1.17s-2.08-.42-2.83-1.17c-.75-.75-1.17-1.77-1.17-2.83s.42-2.08,1.17-2.83c.75-.75,1.77-1.17,2.83-1.17s2.08,.42,2.83,1.17c.75,.75,1.17,1.77,1.17,2.83Z"/></g></svg>