<?xml version="1.0" encoding="UTF-8"?><svg id="Layer_2" xmlns="http://www.w3.org/2000/svg" viewBox="0 0 20 20"><defs><style>.cls-1{fill:none;stroke:#fff;stroke-linecap:round;stroke-linejoin:round;stroke-width:2px;}</style></defs><g id="Layer_1-2"><path class="cls-1" d="M19,9.5c0,1.32-.3,2.62-.9,3.8-.71,1.41-1.79,2.6-3.13,3.43-1.34,.83-2.89,1.27-4.47,1.27-1.32,0-2.62-.3-3.8-.9l-5.7,1.9,1.9-5.7c-.6-1.18-.9-2.48-.9-3.8,0-1.58,.44-3.13,1.27-4.47,.83-1.34,2.02-2.43,3.43-3.13,1.18-.6,2.48-.9,3.8-.9h.5c2.08,.11,4.05,.99,5.53,2.47,1.48,1.48,2.36,3.44,2.47,5.53v.5Z"/></g></svg>