<?xml version="1.0" encoding="UTF-8"?><svg id="Layer_2" xmlns="http://www.w3.org/2000/svg" xmlns:xlink="http://www.w3.org/1999/xlink" viewBox="0 0 24 24"><defs><style>.cls-1{clip-path:url(#clippath);}.cls-2,.cls-3{fill:none;}.cls-3{stroke:#98c8bc;stroke-linecap:round;stroke-linejoin:round;stroke-width:2px;}</style><clipPath id="clippath"><rect class="cls-2" width="24" height="24"/></clipPath></defs><g id="Layer_1-2"><g class="cls-1"><g><path class="cls-3" d="M20.63,7.73l-.62-1.08c-.53-.91-1.69-1.23-2.61-.7h0c-.44,.26-.96,.33-1.44,.2-.49-.13-.91-.44-1.16-.88-.16-.28-.25-.59-.26-.92h0c.01-.52-.18-1.02-.54-1.39-.36-.37-.86-.58-1.37-.58h-1.25c-.51,0-.99,.2-1.35,.56-.36,.36-.56,.85-.55,1.35h0c-.02,1.05-.87,1.89-1.91,1.89-.32,0-.64-.09-.92-.26h0c-.92-.52-2.08-.21-2.61,.7l-.67,1.1c-.53,.91-.21,2.08,.7,2.61h0c.59,.34,.96,.97,.96,1.66s-.36,1.31-.96,1.66h0c-.91,.53-1.22,1.69-.7,2.6h0l.63,1.09c.25,.45,.66,.77,1.15,.91,.49,.14,1.01,.08,1.46-.17h0c.44-.25,.96-.32,1.44-.19,.49,.13,.9,.45,1.15,.89,.16,.28,.25,.59,.26,.92h0c0,1.06,.86,1.91,1.91,1.91h1.25c1.05,0,1.91-.85,1.91-1.9h0c0-.51,.2-1,.56-1.36,.36-.36,.85-.56,1.36-.56,.32,0,.64,.1,.92,.26h0c.91,.53,2.08,.22,2.61-.7h0l.66-1.1c.26-.44,.33-.96,.19-1.45-.13-.49-.45-.91-.89-1.16h0c-.44-.25-.76-.67-.89-1.16-.13-.49-.06-1.01,.19-1.45,.17-.29,.41-.53,.7-.7h0c.91-.53,1.22-1.69,.7-2.6h0Z"/><circle class="cls-3" cx="12" cy="12" r="2.64"/></g></g></g></svg>