<?xml version="1.0" encoding="UTF-8"?><svg id="Layer_2" xmlns="http://www.w3.org/2000/svg" viewBox="0 0 38.16 45"><g id="Layer_1-2"><g><path d="M16.4,15.42h-.75l-.9-7.57c-.03-.24,.15-.47,.39-.5,.01,0,.03,0,.05,0h1.66c.25,0,.45,.21,.45,.45,0,.02,0,.03,0,.06l-.89,7.57Z"/><path d="M16.92,17.13c0,.51-.41,.92-.91,.92s-.92-.41-.92-.92,.41-.91,.92-.91,.91,.41,.91,.91"/><path d="M22.01,15.42h-.75l-.9-7.57c-.03-.24,.13-.46,.38-.5,.02,0,.04,0,.06,0h1.66c.24,0,.44,.2,.44,.44,0,.02,0,.04,0,.06l-.89,7.57Z"/><path d="M22.53,17.13c0,.51-.41,.92-.91,.92s-.92-.41-.92-.92,.41-.91,.92-.91,.91,.41,.91,.91"/><path d="M27.49,15.42h-.75l-.9-7.57c-.03-.24,.13-.46,.38-.5,.02,0,.04,0,.06,0h1.66c.24,0,.44,.2,.44,.44,0,.02,0,.04,0,.06l-.89,7.57Z"/><path d="M28.01,17.13c0,.51-.41,.92-.91,.92s-.92-.41-.92-.92,.41-.91,.92-.91,.91,.41,.91,.91"/><path d="M33.72,5.05C30.69,1.69,26.42,0,21.07,0h-.18C12.78,.06,4.62,4.86,4.64,13.95v6.21L.1,26.31c-.09,.13-.12,.29-.07,.44,.04,.15,.15,.27,.3,.33l4.35,1.63c.3,2.1,1.11,7.98,1.12,8.04,.03,.22,.19,.39,.41,.43,2.42,.41,6.77,.26,8.26,.19,.1,2.33,.16,5.63,.13,7.06,0,.28,.22,.5,.5,.5s.5-.22,.5-.5c.03-1.56-.04-5.28-.15-7.64,0-.13-.06-.26-.16-.35-.1-.09-.24-.14-.37-.13-.06,0-5.3,.3-8.17-.1-.08-.57-.24-1.74-.42-3.03,.12,.03,.24,.04,.36,.04,.36-.03,.7-.19,.95-.46,.16-.15,.21-.19,.32-.19,.06,0,.12,.05,.29,.19,.24,.27,.57,.44,.93,.48h.06c.4-.02,.77-.19,1.05-.47,.15-.12,.24-.2,.33-.21,.09,0,.21,.06,.41,.22,.27,.26,.61,.41,.98,.43,.4-.02,.78-.19,1.07-.47,.09-.08,.18-.15,.29-.19,.1,0,.22-.04,.66,.5,.18,.21,.49,.24,.71,.06,.21-.18,.24-.49,.06-.71-.4-.5-.9-1.01-1.65-.83-.27,.07-.52,.21-.72,.41-.31,.25-.38,.35-.76,.03-.29-.28-.68-.43-1.08-.43-.35,.04-.68,.2-.92,.46-.19,.17-.29,.24-.41,.22-.12-.01-.15-.06-.3-.2-.24-.28-.59-.46-.96-.48-.38,0-.75,.18-1.01,.46-.15,.15-.2,.18-.29,.18-.18-.01-.37-.09-.5-.21-.21-1.51-.43-3.03-.53-3.76-.03-.18-.15-.34-.33-.4l-4-1.51,4.23-5.75c.06-.09,.09-.19,.09-.3v-6.38c-.04-8.42,7.63-12.88,15.21-12.94,5.13-.06,9.19,1.55,12.08,4.71,3.64,4,4.51,9.67,4.1,13.63-.84,8.24-7.64,14.08-7.71,14.13-.12,.1-.19,.25-.18,.41,0,0,.38,8.93,.44,10.6,0,.28,.22,.5,.5,.5s.5-.22,.5-.5c-.06-1.65-.42-10.35-.42-10.35,1.16-1.04,7.06-6.68,7.88-14.64,.41-4.22-.52-10.21-4.35-14.45h0Z"/></g></g></svg>