<?xml version="1.0" encoding="UTF-8"?><svg id="Layer_2" xmlns="http://www.w3.org/2000/svg" viewBox="0 0 36.64 45"><defs><style>.cls-1{fill-rule:evenodd;}</style></defs><g id="Layer_1-2"><g><path d="M32.38,5.05C29.43,1.7,25.35,0,20.21,0h-.18C12.28,.06,4.43,4.87,4.46,13.96v6.21L.09,26.32c-.04,.06-.07,.14-.09,.21-.01,.08,0,.16,.01,.23,.02,.07,.06,.14,.11,.2,.05,.06,.11,.1,.18,.13l4.17,1.63c.29,2.1,1.07,7.99,1.08,8.05,.01,.11,.06,.2,.13,.28,.07,.08,.16,.13,.27,.15,2.32,.41,6.5,.26,7.93,.19,.1,2.34,.16,5.63,.13,7.07,0,.13,.05,.26,.14,.36s.21,.15,.34,.15,.25-.05,.34-.15c.09-.09,.14-.22,.14-.36,.03-1.56-.04-5.28-.15-7.64,0-.07-.01-.14-.04-.2-.03-.06-.06-.12-.11-.17-.05-.05-.11-.08-.17-.11-.06-.02-.13-.03-.19-.03-.05,0-5.08,.29-7.85-.1-.08-.58-.23-1.74-.4-3.03,.11,.03,.23,.04,.35,.04,.35-.02,.67-.19,.9-.45,.16-.16,.2-.19,.31-.19,.07,0,.13,.05,.28,.2,.22,.3,.55,.5,.92,.55h.06c.39-.02,.75-.21,1.01-.5,.14-.13,.23-.2,.31-.21,.08,0,.2,.06,.39,.22,.25,.26,.59,.42,.95,.44,.38-.02,.75-.18,1.02-.45,.08-.08,.17-.15,.28-.2,.1,0,.21-.05,.64,.5,.08,.1,.2,.17,.33,.18,.13,.01,.26-.03,.35-.11,.1-.09,.16-.21,.17-.34,.01-.13-.03-.27-.11-.37-.39-.5-.86-1.01-1.59-.82-.26,.07-.5,.21-.69,.41-.3,.25-.37,.35-.74,.03-.12-.14-.27-.25-.44-.33-.17-.08-.35-.12-.53-.12s-.36,.04-.53,.12c-.17,.08-.32,.19-.44,.33-.19,.17-.27,.24-.39,.23-.12-.01-.14-.07-.28-.2-.12-.15-.26-.27-.42-.35-.16-.09-.34-.14-.52-.15-.18,0-.36,.05-.53,.13-.17,.08-.32,.19-.44,.34-.15,.15-.19,.18-.28,.19-.18-.01-.35-.09-.48-.22-.21-1.51-.41-3.03-.51-3.76-.01-.09-.05-.18-.1-.25-.05-.07-.13-.13-.21-.16l-3.84-1.51,4.06-5.75c.06-.09,.1-.19,.1-.3v-6.38c-.02-8.38,7.33-12.87,14.61-12.93,4.93-.06,8.84,1.55,11.6,4.71,3.49,4,4.32,9.67,3.94,13.63-.8,8.24-7.34,14.08-7.41,14.13-.06,.05-.1,.11-.13,.18-.03,.07-.04,.15-.04,.22l.1,2.52c.12,2.85,.27,6.41,.32,8.08,0,.13,.05,.26,.14,.36,.09,.09,.21,.15,.34,.15s.25-.05,.34-.15,.14-.22,.14-.36c-.05-1.65-.2-5.21-.32-8.08l-.1-2.27c1.12-1.04,6.79-6.67,7.57-14.64,.41-4.23-.48-10.22-4.16-14.46Z"/><path class="cls-1" d="M24.05,7.44c0,1.76,.59,3.13,1.61,4.91,.44,.88,.7,1.85,.76,2.83v11.78c0,.53-.21,1.05-.58,1.43-.37,.38-.87,.59-1.39,.59h-4.53c-.52,0-1.02-.21-1.39-.59-.37-.38-.57-.89-.58-1.43V15.18c.06-.99,.32-1.95,.76-2.83,1.02-1.78,1.61-3.15,1.61-4.91V3.63c0-.28,.11-.55,.3-.75,.19-.2,.46-.31,.73-.31h1.64c.28,0,.54,.11,.73,.31,.19,.2,.3,.47,.3,.75v3.81Zm-2.85-3.98s-.07,.11-.07,.17v3.81c0,.07,0,.13,0,.19,0,.02,0,.03,0,.05h2.13s0-.04,0-.05c0-.06,0-.13,0-.19V3.63c0-.07-.03-.13-.07-.17-.04-.05-.11-.07-.17-.07h-1.64c-.06,0-.12,.03-.17,.07Zm4.16,11.99l-3.48-.03c-.39,0-.75,.15-.75,.73v8.07c0,.49,.25,.7,.75,.7,1.24,0,2.24,0,3.48,.03V15.45Z"/><path d="M17.95,17.4h-4.36v-1.05h4.36c.1,0,.19-.05,.26-.14,.07-.09,.11-.21,.11-.33s-.04-.25-.11-.33c-.07-.09-.16-.14-.26-.14h-6.01c-.18,0-.35,.09-.47,.25-.13,.16-.2,.38-.2,.6v1.23c0,.23,.07,.44,.2,.6,.13,.16,.29,.25,.47,.25h6.01c.1,0,.19-.05,.26-.14s.11-.21,.11-.33-.04-.25-.11-.33c-.07-.09-.16-.14-.26-.14Z"/><path d="M11.88,15.41c-.06,0-.13-.02-.18-.07s-.09-.11-.12-.19c-.02-.08-.03-.16-.02-.24s.05-.15,.09-.21c.55-.67,.43-.84,.1-1.3-.31-.44-.78-1.1-.23-2.2,.05-.09,.12-.16,.2-.18,.08-.02,.17,0,.24,.05,.07,.06,.12,.15,.14,.26s0,.22-.04,.31c-.29,.58-.13,.81,.16,1.22,.34,.48,.86,1.22-.13,2.44-.06,.07-.14,.12-.22,.12Z"/><path d="M13.56,14.67c-.07,0-.15-.02-.21-.06-.06-.04-.11-.1-.14-.17-.03-.07-.03-.14-.02-.22,.02-.07,.05-.14,.1-.19,1.14-1.11,.81-1.48,.2-2.16-.55-.61-1.3-1.45-.4-2.9,.05-.08,.14-.14,.23-.16,.1-.02,.2,0,.28,.05,.08,.05,.14,.14,.16,.23,.02,.1,0,.2-.05,.28-.61,.97-.22,1.4,.32,2,.6,.67,1.42,1.59-.23,3.19-.07,.07-.16,.1-.26,.1Z"/></g></g></svg>