<?xml version="1.0" encoding="UTF-8"?><svg id="Layer_2" xmlns="http://www.w3.org/2000/svg" viewBox="0 0 41.64 45"><g id="Layer_1-2"><g><path d="M24.41,7.87c-.19-.05-.31-.26-.25-.46l.93-3.5c.04-.2,.23-.33,.42-.3,.2,.04,.33,.23,.29,.44,0,.02,0,.04-.01,.06l-.92,3.5c-.05,.16-.22,.3-.45,.26Z"/><path d="M27.42,10.03c-.14-.14-.14-.38,0-.53l2.77-2.76c.14-.14,.37-.14,.51,0,.14,.14,.14,.38,0,.53l-2.77,2.75c-.11,.11-.35,.16-.51,0Z"/><path d="M29.03,13.07c-.2,0-.37-.15-.38-.35s.14-.39,.34-.4l4.5-.53c.2-.03,.38,.11,.4,.32,.03,.2-.11,.39-.31,.42h-.01l-4.5,.53h-.04Z"/><path d="M32.2,17.34c-.11-.03-3.55-1.08-3.55-1.08-.2-.06-.31-.27-.25-.48,.06-.2,.26-.32,.46-.26l3.54,1.08c.19,.06,.29,.24,.24,.46-.05,.23-.25,.34-.45,.28Z"/><path d="M29.88,22.01c-.08,0-.16-.02-.22-.08l-3.21-2.62c-.15-.14-.16-.38-.03-.53,.12-.14,.32-.16,.47-.06l3.21,2.6c.16,.11,.21,.35,.1,.52-.07,.11-.19,.16-.32,.16Z"/><path d="M24,24.84l-.75-4.23c-.04-.2,.09-.4,.29-.44,.2-.04,.38,.09,.42,.29l.75,4.24c.04,.2-.09,.4-.28,.44-.22,.03-.39-.12-.42-.3Z"/><path d="M41.54,26.08l-4.3-6.11h0v-6.14c.02-8.96-7.68-13.72-15.36-13.82h-2.2C12.05,.06,4.34,4.79,4.36,13.71v6.09L.09,25.85c-.09,.12-.12,.28-.07,.43,.04,.15,.15,.27,.29,.33l4.01,1.56c.06,.02,.1,.07,.11,.13,.09,.68,.25,1.85,.39,2.93,0,0,.37,.38,.7,.41,.24,.02,.48-.08,.65-.25,.36-.38,.94-.4,1.34-.07l.29,.25c.13,.12,.33,.12,.46,0l.22-.22c.35-.34,.89-.34,1.25,0l.55,.5c.15,.14,.16,.37,.03,.53s-.36,.17-.51,.03c0,0-.53-.49-.53-.49-.1-.09-.21-.1-.31,0l-.22,.21c-.37,.37-.95,.39-1.34,.05l-.28-.24c-.15-.12-.31-.13-.44,0l-.14,.15c-.41,.42-1.08,.46-1.55,.15l-.06-.04,.55,4.08c.02,.13,.11,.24,.24,.27,2.17,.43,6.19,.3,7.77,.23,.08-.01,.15,.06,.16,.14h0c.1,2.3,.15,5.41,.12,6.78,0,.23,.14,.44,.36,.5,2.14,.52,4.33,.79,6.53,.8,.12,0,.24-.06,.34-.15,.09-.1,.14-.22,.14-.35V18.95s.15,.04,.21,.06c.38,.1,.78,.15,1.18,.15,2.7,0,4.92-2.19,5.08-5,.08-2.44-1.42-4.64-3.67-5.37-.84-.29-1.74-.31-2.6-.08v.77c1.31-.42,2.73-.11,3.76,.82,1.29,1,1.95,2.65,1.73,4.31-.36,2.18-2.19,3.77-4.32,3.77-.47,0-.94-.08-1.38-.24v-4.74h-1.98v4.94c0,.2-.16,.37-.36,.37s-.36-.17-.36-.37v-4.95h-2.4v6.88c0,.2-.16,.38-.36,.38s-.36-.17-.36-.38v-6.88h-2.53v4.71c0,.2-.16,.37-.36,.37s-.36-.17-.36-.37v-4.71h-1.05c-.23-.02-.46-.06-.68-.12-1.31-.38-2.29-1.45-2.29-2.72,0-1.39,1.11-2.55,2.58-2.81v-.21c0-1.5,1.36-2.74,3.04-2.74,.34,0,.67,.05,.99,.15,.03,.01,.12,.03,.12,.03,0,0,.04-.07,.07-.11,.65-1.01,1.76-1.6,2.93-1.55,1.2-.06,2.33,.55,2.97,1.6,.14-.04,.29-.07,.43-.09V1.02h.14c7.36-.15,14.99,4.27,14.97,12.8v6.31c0,.1,.03,.21,.09,.29l3.9,5.5c.05,.07,.04,.18-.03,.24,0,.01-.02,.01-.04,.02l-3.51,1.37c-.22,.08-.38,.29-.42,.53-.06,.46-.16,1.18-.27,2,0,.08-.08,.15-.16,.15h-5.02c-.26,0-.48,.23-.48,.5,0,.07,0,.12,.03,.18,.05,.14,1.33,3.45,4.57,3.45h.48c-.08,.57-.14,1.05-.19,1.39,0,.07-.06,.12-.13,.14-2.76,.36-7.6,.08-7.68,.08-.13,0-.25,.03-.35,.12-.1,.09-.15,.22-.16,.35-.1,2.14-.18,5.52-.14,7.25,0,.28,.22,.5,.48,.5s.48-.22,.48-.5c-.03-1.5,.03-4.4,.12-6.52,0-.08,.07-.15,.15-.15,0,0,5.5,.19,7.69-.2,.21-.03,.36-.21,.39-.42,0,0,.12-.85,.27-2,.03-.25,.07-.5,.11-.79,.01-.09-.06-.2-.16-.2h-1.36c-1.34-.04-2.57-.79-3.26-2-.02-.03-.01-.09,.02-.11,.01-.01,.03-.01,.05-.01h4.91c.09,0,.17-.07,.19-.17,.04-.28,.08-.56,.12-.83,.09-.67,.17-1.27,.23-1.72,0-.06,.05-.11,.11-.13l4.05-1.58c.14-.06,.24-.18,.29-.32,.04-.16,.01-.33-.08-.45Z"/></g></g></svg>