<?xml version="1.0" encoding="UTF-8"?><svg id="Layer_2" xmlns="http://www.w3.org/2000/svg" viewBox="0 0 36.67 45"><defs><style>.cls-1{fill-rule:evenodd;}</style></defs><g id="Layer_1-2"><g><path d="M32.41,5.05C29.42,1.66,25.28-.03,20.05,0,12.28,.06,4.43,4.87,4.46,13.96v6.21L.09,26.33c-.04,.06-.07,.14-.09,.21-.01,.08,0,.16,.01,.23,.02,.07,.06,.14,.11,.2,.05,.06,.11,.1,.18,.13l4.18,1.63c.29,2.13,1.08,8.05,1.08,8.05,.01,.11,.06,.21,.13,.28,.07,.08,.16,.13,.27,.15,2.32,.41,6.5,.26,7.94,.2,.1,2.34,.16,5.63,.13,7.07,0,.13,.05,.26,.14,.36,.09,.09,.21,.15,.34,.15s.25-.05,.34-.15c.09-.09,.14-.22,.14-.36,.03-1.59-.03-5.23-.15-7.65,0-.13-.06-.26-.16-.35-.05-.05-.1-.08-.16-.1-.06-.02-.13-.03-.19-.03-.05,0-5.09,.29-7.86-.1-.1-.74-.33-2.48-.56-4.19h1.94c1.01,0,1.99,.33,2.82,.93,.09,.07,.19,.11,.3,.11,.07,0,.14-.02,.21-.05,.07-.03,.12-.08,.17-.14,.04-.05,.07-.11,.09-.18,.02-.06,.02-.13,.02-.2,0-.07-.03-.13-.06-.19-.03-.06-.07-.11-.12-.15-1-.74-2.2-1.15-3.42-1.15h-2.07c-.16-1.16-.3-2.21-.38-2.78-.01-.09-.05-.17-.1-.24-.05-.07-.13-.12-.21-.16l-3.85-1.52,4.07-5.75c.06-.09,.09-.19,.09-.3v-6.38c-.02-8.39,7.35-12.86,14.63-12.92,4.94-.03,8.84,1.55,11.61,4.72,3.5,4,4.33,9.68,3.94,13.64-.81,8.25-7.35,14.09-7.41,14.14-.06,.05-.1,.11-.13,.18s-.04,.15-.04,.23l.11,2.59c.12,2.83,.26,6.35,.32,7.99,0,.13,.05,.26,.14,.36,.09,.09,.21,.15,.34,.15s.25-.05,.34-.15c.09-.09,.14-.22,.14-.36-.05-1.64-.2-5.17-.32-8l-.09-2.33c1.12-1.04,6.79-6.68,7.57-14.65,.4-4.23-.49-10.22-4.18-14.47Z"/><path class="cls-1" d="M10.61,9.6c0-1.66,1.34-3,3-3h12.1c1.65,0,3,1.34,3,2.99,.97,.14,1.71,.97,1.71,1.98v.42c0,1.02-.76,1.85-1.74,1.98-.2,1.46-1.46,2.58-2.97,2.58H13.61c-1.66,0-3-1.34-3-3v-3.96Zm3.86-1.71c-1.1,0-2,.9-2,2v3.09c0,1.1,.9,2,2,2h.33c1.1,0,2-.9,2-2v-3.09c0-1.1-.9-2-2-2h-.33Z"/></g></g></svg>