<?xml version="1.0" encoding="UTF-8"?><svg id="Layer_2" xmlns="http://www.w3.org/2000/svg" viewBox="0 0 37.22 45.72"><g id="Layer_1-2"><path d="M27.21,5.32l-2.1,8.83s-.03,.07-.06,.1c-.03,.03-.06,.05-.1,.06s-.08,.01-.11,0c-.04-.01-.07-.03-.1-.06l-1.86-1.58s-.06-.04-.09-.05c-.03-.01-.07-.01-.1,0-.03,0-.07,.02-.1,.04-.03,.02-.05,.05-.07,.08l-2.92,6.1,1.79-10.35s.03-.08,.06-.11c.03-.03,.06-.05,.1-.07,.04-.01,.08-.01,.12,0,.04,.01,.08,.03,.1,.06l1.94,1.7s.05,.04,.09,.05c.03,.01,.07,.01,.1,.01,.03,0,.07-.02,.1-.04,.03-.02,.05-.04,.07-.07l2.71-4.88c.13-.26,.51-.08,.44,.19Zm6.33,10.07l-5.42,5.69s-.05,.04-.08,.05c-.03,0-.07,.01-.1,0-.03,0-.06-.02-.09-.04-.03-.02-.05-.05-.06-.08l-.74-1.92s-.03-.06-.05-.08c-.02-.02-.05-.04-.08-.05-.03,0-.06-.01-.09,0-.03,0-.06,.02-.08,.04l-4.86,3.35,5.85-6.95s.05-.05,.08-.06c.03-.01,.07-.02,.1,0,.03,0,.07,.02,.09,.04,.03,.02,.05,.05,.06,.09l.74,2.02s.03,.05,.05,.08c.02,.02,.05,.04,.07,.05,.03,.01,.06,.01,.09,.01,.03,0,.06-.01,.08-.03l4.18-2.56s.11-.05,.16-.04c.06,.01,.11,.05,.14,.1,.03,.05,.04,.11,.03,.17-.01,.06-.04,.11-.09,.15ZM15.33,4.5l2.22,7.53s.01,.07,0,.1c0,.03-.02,.07-.04,.09-.02,.03-.05,.05-.08,.06-.03,.01-.06,.02-.1,.01l-1.93-.22s-.06,0-.09,0c-.03,0-.06,.03-.08,.05-.02,.02-.04,.05-.05,.08-.01,.03-.01,.06,0,.1l.54,5.94-3.04-8.5s-.02-.07-.01-.11c0-.04,.02-.07,.04-.1,.02-.03,.05-.05,.08-.06,.03-.01,.07-.02,.1-.02l2.02,.27s.06,0,.09,0c.03,0,.05-.02,.07-.05,.02-.02,.04-.05,.05-.07,.01-.03,.02-.06,.02-.09l-.19-4.95s0-.05,0-.08c0-.03,.02-.05,.03-.07,.01-.02,.03-.04,.06-.05,.02-.01,.05-.02,.07-.03,.03,0,.05,0,.08,0,.03,0,.05,.02,.07,.03,.04,.03,.07,.08,.08,.13Zm17.57,.63C29.9,1.72,25.75,0,20.54,0h-.18C12.48,.06,4.5,4.95,4.53,14.18v6.31L.09,26.74c-.05,.06-.08,.14-.09,.22s0,.16,.01,.23c.02,.08,.06,.15,.11,.2,.05,.06,.12,.1,.19,.13l4.24,1.66c.3,2.14,1.08,8.11,1.09,8.17,.01,.11,.06,.21,.13,.29,.07,.08,.17,.13,.27,.15,2.36,.42,6.6,.27,8.06,.19,.1,2.38,.16,5.72,.13,7.18,0,.14,.05,.27,.14,.36,.09,.1,.22,.15,.35,.15s.26-.05,.35-.15c.09-.1,.14-.23,.14-.36,.03-1.59-.04-5.36-.15-7.76,0-.07-.01-.14-.04-.2-.03-.06-.07-.12-.11-.17-.05-.05-.11-.09-.17-.11-.06-.02-.13-.03-.2-.03-.05,0-5.17,.3-7.98-.1-.08-.58-.24-1.77-.41-3.08,.12,.03,.24,.04,.35,.04,.35-.02,.68-.19,.92-.46,.16-.16,.21-.19,.31-.19,.07,0,.13,.05,.28,.2,.23,.31,.56,.51,.93,.56h.06c.39-.03,.76-.21,1.02-.51,.14-.13,.24-.21,.32-.21,.08,0,.2,.06,.4,.23,.26,.27,.6,.43,.96,.45,.39-.02,.76-.18,1.04-.46,.08-.08,.18-.15,.28-.2,.1,0,.22-.05,.65,.51,.08,.1,.2,.17,.33,.18,.13,.01,.26-.03,.36-.12,.1-.09,.16-.21,.18-.35,.01-.14-.03-.27-.11-.38-.39-.51-.88-1.03-1.61-.84-.26,.08-.5,.22-.7,.42-.3,.26-.37,.35-.75,.03-.12-.14-.28-.26-.45-.34-.17-.08-.35-.12-.54-.12s-.37,.04-.54,.12c-.17,.08-.32,.19-.45,.34-.19,.17-.28,.24-.4,.23-.12-.01-.14-.07-.28-.21-.12-.15-.26-.27-.43-.36-.16-.09-.34-.14-.53-.15-.19,0-.37,.05-.54,.13-.17,.08-.32,.2-.45,.34-.15,.15-.2,.18-.28,.19-.18-.01-.36-.09-.49-.22-.21-1.54-.42-3.08-.52-3.82-.01-.09-.05-.18-.1-.25-.06-.07-.13-.13-.21-.16l-3.91-1.54,4.13-5.84c.06-.09,.1-.19,.1-.3v-6.48c-.02-8.52,7.45-13.08,14.85-13.13,5.01-.06,8.98,1.57,11.79,4.79,3.55,4.06,4.39,9.82,4,13.85-.82,8.37-7.46,14.31-7.52,14.36-.06,.05-.1,.11-.13,.19s-.04,.15-.04,.23l.1,2.56c.12,2.9,.27,6.51,.32,8.21,0,.14,.05,.27,.14,.36,.09,.1,.22,.15,.35,.15s.26-.05,.35-.15c.09-.1,.14-.23,.14-.36-.05-1.68-.2-5.29-.32-8.21l-.1-2.31c1.14-1.06,6.89-6.78,7.69-14.87,.42-4.3-.48-10.38-4.23-14.69Z"/></g></svg>