<?xml version="1.0" encoding="UTF-8"?><svg id="Layer_2" xmlns="http://www.w3.org/2000/svg" viewBox="0 0 38.18 45"><g id="Layer_1-2"><g><path d="M21.35,20.36c-.7-.02-1.39-.19-2.02-.5-.6-.28-1.16-.65-1.66-1.08-.37,0-.73-.06-1.1-.1-.76,.75-1.48,1.34-2.2,1.24-.49-.12-.9-.46-1.1-.92-.21-.39-.29-.84-.21-1.28-.42-.19-.81-.43-1.18-.7-.35-.27-.65-.58-.91-.95-.35,.22-.77,.3-1.17,.21-.44-.13-.76-.55-.94-1.23-.3-1.1-.04-2.28,.67-3.16-.12-1,.12-2.01,.67-2.85,.28-.4,.69-.68,1.16-.81,.77-1.38,2.11-2.35,3.66-2.64,.84-.21,1.73-.16,2.55,.13,2.09-1.08,5.23-1.01,7.48-.58,.24-.2,.53-.34,.84-.42,.82-.18,1.65,.24,1.99,1.01,.06,.1,.1,.21,.14,.3,1.87,.78,4.75,2.34,4.45,4.61-.08,.51-.38,.96-.82,1.23,.53,.8,.87,1.72,1.01,2.67,.16,2.17-.65,3.35-2.75,3.94-1.85,.5-4.34,1.04-6.21,.23-.12,.28-.28,.55-.46,.79-.44,.59-1.15,.91-1.88,.87h0Zm-.21-.5c.64,.1,1.29-.15,1.69-.67,.16-.22,.3-.46,.41-.7-.35,.05-.71,.1-1.1,.15-.28,.03-.61,.07-1.01,.1v1.11h0Zm-2.6-1.05c.32,.23,.65,.43,1.01,.59,.35,.17,.71,.3,1.1,.38v-1.04c-.63,.06-1.34,.08-2.1,.06h0Zm-5-.88c-.02,.28,.04,.57,.18,.82,.22,.41,.46,.62,.72,.67,.43,.06,.95-.33,1.51-.83-.83-.12-1.64-.34-2.42-.65h0Zm10.66,.4c1.28,.44,2.86,.28,4.28-.03,.73-.17,2.19-1.07,2.05-2.64-.1,.2-.23,.39-.38,.56-.72,.87-2.73,1.58-5.97,2.11h.02Zm-6.31-.04c.92,.06,1.85,.06,2.77,0,.02-.49-.12-.96-.4-1.36-.17-.25-.44-.4-.74-.43-.61-.03-1.35,.62-2.08,1.36,.15,.13,.28,.29,.44,.43h.02Zm1.59-2.32h.06c.43,.04,.81,.27,1.07,.62,.34,.47,.52,1.05,.5,1.64,.31-.03,.62-.06,.94-.1l.59-.07v-.07c-.69-.73-1.01-1.73-.89-2.72-.23-.13-.46-.24-.71-.34-.07,.19-.18,.37-.34,.5-.76,.68-2.29,.18-3.91-.34l-.5-.16c-.1,.92,.19,1.84,.82,2.52,.75-.75,1.55-1.47,2.35-1.47h.02Zm-5.86,1.46c.89,.35,1.82,.59,2.77,.71l.34-.34c-.69-.75-1.05-1.75-1.01-2.77-.42,.27-.8,.58-1.15,.93l-.06,.07-.04,.04c-.28,.29-.52,.62-.7,.98-.06,.12-.11,.25-.14,.37h0Zm8.58-1.85c-.04,.74,.21,1.47,.72,2.02,.13,.12,.28,.24,.43,.34h.03c.09-.48,0-.98-.26-1.4-.24-.37-.55-.7-.91-.96h-.02Zm.93,.11c.18,.18,.34,.38,.46,.6,.3,.48,.42,1.04,.36,1.59,.98-.15,1.81-.33,2.52-.5-.34-.2-.47-.72-.58-1.44-.93,.18-1.88,.1-2.76-.24h0Zm7.74-.87c.06,.18,.11,.35,.14,.53,.19,.92-.1,1.87-.77,2.52,1.51-.55,2.07-1.51,1.94-3.28-.13-.89-.46-1.75-.97-2.5-.15,.06-.3,.12-.45,.17l-.1,.03c.05,.12,.09,.24,.12,.37,.21,.7,.24,1.44,.06,2.15h.03Zm-19.49,1.02c.22,.3,.49,.58,.79,.81,.32,.23,.65,.43,1.01,.6,.04-.13,.1-.27,.17-.4,.04-.09,.09-.18,.15-.27-.17,.01-.34-.01-.5-.07-.5-.2-.93-.55-1.21-1.01-.14,.12-.27,.22-.42,.33h.03Zm16.58-1.11l.04,.09c.46,.77,.25,1.76-.47,2.29,1.33-.42,1.96-.83,2.25-1.17,.26-.31,.45-.68,.56-1.07-.4-.85-1.04-1.56-1.83-2.05,.04,.15,.06,.3,.07,.46-.04,.55-.27,1.06-.64,1.46h.02Zm-1.6,1.1c.08,.56,.19,1.07,.37,1.14,.06,.03,.18,0,.34-.14,.66-.5,.83-1.07,.5-1.72-.36,.31-.78,.56-1.23,.71h.01Zm-14.21-.63c.24,.38,.59,.68,1.01,.85,.37,.12,.76,0,1.01-.3l.07-.07c.27-.33,.46-.71,.57-1.12-.81-.18-1.51-.21-1.99,.1-.15,.12-.3,.24-.43,.37l-.23,.17Zm-2.55-2.52c-.38,.69-.49,1.5-.29,2.26,.13,.5,.34,.8,.59,.88,.26,.05,.53,0,.75-.15-.54-.93-.9-1.94-1.06-2.99h0Zm12.69,2.17l.22,.09,.61,.23c.83,.35,1.75,.45,2.64,.3,0-.06,0-.13-.03-.21-.07-.75-.21-1.49-.43-2.21-.5-.3-1.01-.58-1.54-.82-.78,.61-1.3,1.5-1.47,2.48,0,.05-.01,.1-.02,.15h0Zm-12.25-2.76c0,.12,0,.24,.04,.37,.13,1.04,.47,2.05,1.01,2.96,.14-.1,.28-.21,.41-.32-.38-.69-.66-1.43-.81-2.2-.02-.09-.03-.19-.04-.28v-.04c-.05-.3-.08-.6-.09-.9-.07,.04-.14,.1-.21,.15-.11,.09-.21,.18-.31,.27h0Zm15.94,1.37c.12,.58,.21,1.15,.28,1.74v.13c.24-.09,.47-.21,.67-.36,.12-.09,.24-.18,.35-.29-.37-.47-.81-.89-1.31-1.23h0Zm-9.27,1.11l.22,.07c1.41,.46,2.87,.93,3.41,.44,.09-.09,.16-.19,.19-.32-1.07-.35-2.19-.46-3.31-.34-.17,.04-.35,.08-.52,.14h0Zm-5.23-.71c.11,.31,.24,.61,.4,.89l.14-.11c.16-.15,.33-.29,.5-.41,.59-.41,1.44-.39,2.39-.18,.03-.18,.06-.37,.06-.56-.29,0-.58-.05-.85-.15-.47-.15-.81-.57-.87-1.07-.17-.8,.22-1.62,.95-1.99-.09-.11-.18-.21-.28-.3-.16-.15-.34-.3-.5-.45-.53,.25-1.01,.61-1.4,1.04-.09,.1-.16,.19-.24,.3,.09,.02,.18,.05,.26,.09,.38,.18,.83,.65,.8,1.82,.05,.5-.24,.97-.71,1.14-.22,.06-.45,.03-.65-.06h0Zm9.63,.53l.69,.27v-.06c.18-1.01,.69-1.93,1.45-2.62-.56-.24-1.15-.47-1.76-.67-.18,0-.37,0-.56,.03l-.19,.12c.04,.61,.12,1.21,.25,1.81,.09,.36,.13,.74,.12,1.12h0Zm-5.73-.2c.18,.04,.37,.09,.55,.15,.13-.35,.3-.69,.5-1.01-.31,.07-.62,.12-.94,.15-.03,.24-.06,.47-.11,.71h0Zm10.37-1.46c.71,.42,1.35,.95,1.89,1.58,.24-.29,.37-.64,.41-1.01,0-.16-.04-.32-.1-.47-.08-.17-.2-.32-.34-.44-.44-.1-.87-.26-1.28-.47-.4-.09-.8-.13-1.21-.12,.09,.08,.18,.17,.26,.27,.15,.19,.27,.41,.37,.64v.02h0Zm-7.77,.12c.83,.52,1.71,.98,2.62,1.34-.01-.27-.04-.55-.1-.82-.11-.53-.19-1.08-.24-1.62-.73,.42-1.49,.78-2.28,1.08v.02Zm-.8,.28c-.24,.29-.46,.61-.61,.96,.19-.07,.4-.12,.61-.15,.55-.07,1.1-.08,1.64-.03-.49-.25-.96-.54-1.4-.86l-.23,.09Zm11.78-.59c.59,.4,1.1,.92,1.48,1.51,.02-.41-.03-.81-.15-1.2-.04-.13-.09-.27-.15-.4-.4,.06-.79,.08-1.18,.06v.02Zm-17.79,.28c.03,.1,.06,.19,.12,.28,.12,.25,.4,.39,.67,.35,.21-.06,.34-.3,.34-.66,0-.7-.16-1.18-.5-1.36-.11-.05-.22-.07-.34-.07-.22,.35-.34,.77-.33,1.19,0,.07,.02,.16,.04,.25h0Zm3.27-2.07c-.57,.27-.87,.9-.72,1.51,.03,.31,.25,.57,.55,.66,.22,.08,.46,.12,.69,.12v-.18c-.01-.74-.19-1.46-.52-2.12v.02Zm.47-.19c.34,.7,.53,1.47,.55,2.26v.18c.49-.06,.96-.16,1.42-.3-.71-.56-1.16-1.38-1.25-2.28-.24,.02-.49,.06-.72,.12v.02Zm1.34,.35c.21,.55,.55,1.05,1.01,1.42,.8-.69,1.78-1.16,2.82-1.36h.11c-.58-.16-1.16-.3-1.72-.39-.21,.24-.49,.4-.79,.5-.49,.15-1.01,.07-1.43-.2v.02Zm11.65,1.01c.65,.12,1.32,.14,1.98,.05-.33-.53-.84-.92-1.43-1.11-1.1-.28-2.12-.78-3.03-1.46-.07,.37-.03,.74,.12,1.08,.77,.38,1.51,.85,2.18,1.38l.18,.06Zm-2.31-3.03c.88,.71,1.91,1.23,3,1.51,.77,.25,1.42,.79,1.81,1.51l.18-.06c.11-.03,.22-.07,.33-.12-1.16-1.72-2.92-3.33-4.17-3.53-.46-.11-.94,.15-1.1,.6l-.05,.08Zm1.56-1.14c1.35,.43,3.03,2.02,4.18,3.7,.31-.19,.52-.51,.58-.87,.22-1.67-1.89-3.08-3.82-3.94,0,.18-.06,.35-.15,.5-.18,.29-.46,.5-.79,.6h0Zm-16.16,1.21c-.17,.12-.31,.27-.44,.43-.4,.59-.59,1.3-.56,2.02,.17-.14,.35-.26,.55-.36,.04-.72,.19-1.42,.46-2.09h0Zm10.71,1.85c.94-.01,1.86,.17,2.73,.55,.34-.08,.7-.1,1.05-.09-.12-.13-.22-.27-.31-.43-.7-.36-1.51-.71-2.29-1.01-.15,.15-.33,.31-.5,.46-.18,.15-.43,.34-.66,.52h-.01Zm-10.05-2.08c-.33,.67-.53,1.4-.59,2.15h.06c.14-.21,.3-.42,.46-.61,.37-.42,.82-.77,1.32-1.04-.35-.28-.79-.46-1.24-.49h0Zm9.05,1.82c.12,.03,.23,.06,.35,.1,.35-.24,.68-.49,1.01-.76,.11-.09,.21-.18,.31-.28-.5-.19-1.01-.37-1.51-.5-.09,.47-.13,.96-.15,1.44h-.01Zm-4.34-.21c.31,.28,.76,.37,1.16,.24,.1-.03,.21-.09,.3-.15-.48-.06-.96-.1-1.45-.1h-.01Zm2.43-.25c.46,.09,.93,.19,1.41,.33,.01-.49,.07-.97,.15-1.44l-.28-.06c-.27-.06-.56-.12-.86-.16-.05,.47-.19,.93-.41,1.35h0s0,0,0,0Zm4.46-.67c.57,.22,1.13,.48,1.66,.73-.06-.38-.03-.78,.07-1.15-.27-.27-.49-.58-.64-.92h-.33c-.15,.5-.41,.95-.76,1.34h0Zm-9.4-.1l.31,.28c.17,.15,.32,.32,.45,.5l.07-.03c.25-.08,.5-.13,.77-.16-.12-.33-.16-.67-.14-1.01-.49,.09-.98,.24-1.45,.42h-.01Zm2.52,.52c.62,0,1.24,.06,1.86,.15,.25-.4,.41-.85,.47-1.32-.5-.04-1.01-.06-1.51-.04-.5,.19-.87,.61-1.01,1.13v.08h.19Zm-.56-1.07c-.02,.17-.02,.34,0,.5,.09-.2,.22-.38,.38-.54l-.38,.03Zm5.12-.16c.58,.17,1.18,.38,1.79,.61,.32-.33,.57-.71,.73-1.14h-2.34c-.03,.16-.11,.34-.15,.53h-.03Zm-9.03-.36c.55,.11,1.06,.35,1.49,.71,.63-.28,1.29-.49,1.97-.61,.03-.12,.06-.24,.1-.37,.26-.78,.77-1.44,1.45-1.9-.62-.14-1.26-.14-1.88,0-1.29,.25-2.43,1.04-3.11,2.16h-.02Zm7.31,0c.33,.04,.64,.1,.96,.18l.25,.06c.03-.13,.07-.27,.1-.38-.46,0-.9,.04-1.33,.08,.01,.02,.02,.03,.03,.05l-.03,.02Zm5.66-.17c.09,.15,.18,.28,.29,.4,.08-.16,.18-.3,.31-.43l-.6,.03Zm-7.34-1.77c-.73,.4-1.29,1.06-1.57,1.85l-.04,.12c.38-.06,.77-.1,1.16-.12,.49-.2,1.01-.34,1.54-.4-.11-.42-.34-.8-.64-1.11-.13-.13-.29-.24-.45-.33h0Zm.5-.27c.1,.07,.2,.15,.29,.24,.4,.38,.68,.87,.81,1.41,.5-.06,1.04-.09,1.59-.09,.43-1.08,1.07-1.75,1.7-1.89,.28-.06,1.23-.12,1.59,1.59,.02,.09,.03,.19,.03,.28h.09c-.04-.21-.06-.41-.06-.62,.03-.49,.2-.96,.5-1.35-1.3-.21-2.62-.27-3.94-.18-.9,.06-1.79,.26-2.62,.61h0Zm3.84,1.51h1.67c0-.06,0-.12,0-.18-.09-.41-.35-1.34-1.01-1.2-.4,.09-.87,.56-1.24,1.38h.58Zm3.25-1.87c-.34,.34-.52,.8-.53,1.28,0,.21,.03,.4,.09,.6,1.38-.03,2.52-.17,2.83-.65,.09-.15,.1-.34,.04-.5-.44-.18-.86-.32-1.22-.43-.37-.11-.75-.18-1.19-.27v-.02Zm.57-.39c.27,.06,.5,.13,.75,.19,.12,.03,.4,.12,.78,.26-.27-.44-.79-.65-1.3-.53l-.24,.08Z"/><path d="M33.74,5.05C30.63,1.66,26.31-.03,20.87,0,12.79,.06,4.62,4.87,4.64,13.96v6.21L.1,26.33c-.09,.13-.12,.3-.07,.44,.04,.15,.15,.27,.3,.33l4.35,1.63c.3,2.12,1.12,8.05,1.12,8.05,.03,.22,.19,.39,.41,.43,2.42,.41,6.77,.27,8.26,.19,.1,2.35,.16,5.63,.13,7.07,0,.28,.22,.5,.5,.5s.5-.22,.5-.5c.03-1.59-.03-5.24-.15-7.64-.01-.13-.07-.26-.16-.35-.1-.09-.24-.13-.37-.12-.06,0-5.3,.3-8.18-.1-.1-.74-.34-2.48-.58-4.18h2.02c1.05,.01,2.08,.34,2.94,.94,.09,.07,.2,.1,.31,.1,.15,0,.3-.07,.4-.18,.18-.22,.14-.53-.08-.71h0c-1.04-.74-2.28-1.15-3.56-1.15h-2.15c-.16-1.16-.31-2.21-.4-2.78-.03-.18-.15-.34-.33-.4l-4-1.51,4.24-5.75c.06-.09,.09-.19,.09-.3v-6.38c-.03-8.36,7.64-12.85,15.23-12.91,5.14,0,9.2,1.55,12.08,4.72,3.64,4,4.51,9.67,4.1,13.64-.84,8.25-7.65,14.09-7.72,14.14-.12,.1-.19,.25-.18,.41,0,0,.38,8.94,.44,10.57,0,.28,.22,.5,.5,.5s.5-.22,.5-.5c-.06-1.63-.42-10.36-.42-10.36,1.16-1.04,7.07-6.67,7.88-14.65,.41-4.2-.51-10.19-4.34-14.44h0Z"/></g></g></svg>