<?xml version="1.0" encoding="UTF-8"?><svg id="Layer_2" xmlns="http://www.w3.org/2000/svg" viewBox="0 0 54.55 54.54"><defs><style>.cls-1{fill:#63837b;}</style></defs><g id="Layer_1-2"><path class="cls-1" d="M27.28,0C12.21,0,0,12.21,0,27.27s12.21,27.27,27.28,27.27,27.27-12.21,27.27-27.27S42.35,0,27.28,0Zm-.04,2.58c4.21,0,8.17,1.07,11.64,2.93h.03l-6.66,6.66c-1.57-.51-3.25-.8-5-.8s-3.42,.29-5,.8l-6.66-6.66c3.47-1.87,7.43-2.93,11.64-2.93Zm-15.06,29.7l-.39,.39-3.89,3.89-2.38,2.38c-1.87-3.47-2.93-7.43-2.93-11.64s1.07-8.17,2.93-11.64v-.04s6.67,6.66,6.67,6.66c-.51,1.57-.8,3.25-.8,5s.29,3.42,.8,5Zm15.11,19.68c-4.21,0-8.17-1.07-11.64-2.93h-.03l6.66-6.66c1.57,.51,3.25,.8,5,.8s3.42-.29,5-.8l6.66,6.66c-3.47,1.87-7.43,2.93-11.64,2.93Zm-.03-11.39c-7.33,0-13.3-5.97-13.3-13.3s5.97-13.3,13.3-13.3,13.3,5.97,13.3,13.3-5.97,13.3-13.3,13.3Zm15.48-7.95v.03l-.39-.39c.51-1.57,.8-3.25,.8-5s-.29-3.42-.8-5l6.66-6.66c1.87,3.47,2.93,7.43,2.93,11.64s-1.07,8.18-2.93,11.64l-6.26-6.26Z"/></g></svg>