<?xml version="1.0" encoding="UTF-8"?><svg id="Layer_2" xmlns="http://www.w3.org/2000/svg" viewBox="0 0 41.47 41.47"><defs><style>.cls-1{fill:#63837b;}</style></defs><g id="Layer_2-2"><path class="cls-1" d="M20.74,0C9.28,0,0,9.28,0,20.73s9.28,20.73,20.74,20.73,20.73-9.28,20.73-20.73S32.19,0,20.74,0ZM10.62,20.73c0-5.58,4.54-10.11,10.11-10.11s10.11,4.54,10.11,10.11-4.54,10.11-10.11,10.11-10.11-4.54-10.11-10.11Zm21.88,4.09h0l-.3-.3c.39-1.19,.61-2.47,.61-3.8s-.22-2.6-.61-3.8l5.06-5.06c1.42,2.64,2.23,5.65,2.23,8.85s-.81,6.22-2.23,8.85l-4.76-4.76Zm-2.92-20.63l-5.06,5.06c-1.19-.39-2.47-.61-3.8-.61s-2.6,.22-3.8,.61l-5.06-5.06c2.64-1.42,5.65-2.23,8.85-2.23s6.21,.81,8.85,2.23ZM4.2,11.88l5.06,5.06c-.39,1.19-.61,2.47-.61,3.8s.22,2.6,.61,3.8l-.3,.3h0s-2.96,2.96-2.96,2.96l-1.81,1.81c-1.42-2.64-2.23-5.65-2.23-8.85s.81-6.21,2.23-8.85Zm7.68,25.39l5.06-5.06c1.19,.39,2.47,.61,3.8,.61s2.6-.22,3.8-.61l5.06,5.06c-2.64,1.42-5.65,2.23-8.85,2.23s-6.21-.81-8.85-2.23Z"/></g></svg>