<?xml version="1.0" encoding="UTF-8"?><svg id="Layer_2" xmlns="http://www.w3.org/2000/svg" viewBox="0 0 258.59 43.27"><defs><style>.cls-1{fill:#63837b;}</style></defs><g id="Layer_2-2"><g><g><polygon class="cls-1" points="124.22 6.3 117.4 26.63 110.56 6.3 102.24 6.3 102.24 34.73 108.61 34.73 108.61 27.37 107.98 13.97 115.25 34.73 119.53 34.73 126.8 13.97 126.17 27.37 126.17 34.73 132.55 34.73 132.55 6.3 124.22 6.3"/><path class="cls-1" d="M72.57,20.75c-.45-.26-.98-.45-1.56-.6,.28-.11,.55-.22,.8-.36,1.13-.62,1.95-1.44,2.46-2.44,.52-1,.78-2.08,.78-3.24,0-1.33-.25-2.48-.74-3.46-.49-.98-1.22-1.79-2.17-2.44-.94-.65-2.08-1.13-3.42-1.45-1.34-.31-2.86-.47-4.57-.47h-10.08v28.44h11.11c2.28,0,4.19-.31,5.74-.94,1.56-.62,2.74-1.56,3.54-2.79,.79-1.25,1.19-2.8,1.19-4.65,0-1.12-.24-2.18-.72-3.18-.48-1-1.27-1.81-2.36-2.42Zm-8.42-9.51c1.05,0,1.91,.12,2.58,.37,.68,.23,1.17,.61,1.48,1.13s.47,1.2,.47,2.05c0,.74-.16,1.37-.47,1.88-.31,.49-.81,.87-1.48,1.13-.66,.26-1.53,.39-2.6,.39h-3.69v-6.95h3.71Zm4.77,16.84c-.29,.53-.74,.96-1.35,1.27-.61,.31-1.41,.47-2.38,.47h-4.75v-7.36h5c.94,0,1.69,.16,2.25,.47,.57,.31,.99,.76,1.25,1.33,.27,.57,.41,1.25,.41,2.03,0,.66-.14,1.26-.43,1.8Z"/><polygon class="cls-1" points="79.78 6.3 79.78 34.73 99.12 34.73 99.12 29.81 86.15 29.81 86.15 22.51 97.16 22.51 97.16 17.74 86.15 17.74 86.15 11.24 99.14 11.24 99.14 6.3 79.78 6.3"/><path class="cls-1" d="M165.74,20.75c-.45-.26-.98-.45-1.56-.6,.28-.11,.55-.22,.8-.36,1.13-.62,1.95-1.44,2.46-2.44,.52-1,.78-2.08,.78-3.24,0-1.33-.25-2.48-.74-3.46-.5-.98-1.22-1.79-2.17-2.44-.94-.65-2.08-1.13-3.42-1.45s-2.86-.47-4.57-.47h-10.08v28.44h11.11c2.28,0,4.19-.31,5.74-.94,1.56-.62,2.74-1.56,3.54-2.79,.8-1.25,1.19-2.8,1.19-4.65,0-1.12-.24-2.18-.72-3.18-.48-1-1.27-1.81-2.36-2.42Zm-8.42-9.51c1.05,0,1.91,.12,2.58,.37,.68,.23,1.17,.61,1.48,1.13,.31,.52,.47,1.2,.47,2.05,0,.74-.16,1.37-.47,1.88-.31,.49-.81,.87-1.48,1.13-.66,.26-1.53,.39-2.6,.39h-3.69v-6.95h3.71Zm4.77,16.84c-.29,.53-.74,.96-1.35,1.27-.61,.31-1.41,.47-2.38,.47h-4.75v-7.36h5c.94,0,1.69,.16,2.25,.47,.57,.31,.99,.76,1.25,1.33,.27,.57,.41,1.25,.41,2.03,0,.66-.14,1.26-.43,1.8Z"/><path class="cls-1" d="M252.03,13.6l-3.72,12.59-3.66-12.59h-6.56l7.41,21.3-.58,1.49c-.16,.47-.36,.85-.62,1.15-.25,.31-.6,.55-1.05,.7-.44,.16-1.03,.23-1.76,.23-.14,0-.29,0-.43-.02h-.45l.02,4.43c.52,.13,.94,.22,1.25,.27,.33,.07,.78,.1,1.37,.1,1.16,0,2.14-.18,2.93-.53,.79-.35,1.45-.81,1.95-1.37,.52-.56,.93-1.15,1.23-1.76,.31-.61,.56-1.18,.74-1.72l8.5-24.3h-6.56Z"/><path class="cls-1" d="M229.94,15.5c-.51-.6-1.08-1.09-1.72-1.46-.91-.55-1.98-.82-3.2-.82-1.33,0-2.51,.26-3.54,.78s-1.89,1.26-2.6,2.23c-.69,.95-1.22,2.09-1.58,3.42-.35,1.32-.53,2.77-.53,4.38v.41c0,1.54,.18,2.96,.53,4.26,.36,1.3,.89,2.43,1.58,3.4,.69,.96,1.54,1.71,2.56,2.25,1.03,.53,2.21,.8,3.54,.8,1.24,0,2.31-.27,3.22-.8,.79-.47,1.48-1.1,2.06-1.87l.3,2.28h5.51V4.73h-6.13V15.5Zm-1.17,14.26c-.59,.42-1.33,.62-2.25,.62-.68,0-1.25-.15-1.72-.45-.47-.31-.85-.74-1.13-1.29-.29-.55-.49-1.18-.62-1.89-.12-.72-.18-1.49-.18-2.32v-.41c0-.86,.07-1.65,.2-2.38,.14-.74,.36-1.39,.65-1.93,.3-.55,.68-.97,1.15-1.27,.47-.31,1.04-.47,1.7-.47s1.26,.12,1.76,.37c.5,.23,.91,.58,1.23,1.04,.15,.2,.27,.43,.39,.67v8.28c-.29,.6-.68,1.08-1.17,1.44Z"/><path class="cls-1" d="M185.04,28.49c-.25,.49-.6,.89-1.05,1.22-.61,.44-1.46,.66-2.54,.66-.43,0-.83-.06-1.19-.18-.35-.12-.65-.3-.9-.55-.23-.25-.42-.56-.57-.94-.13-.39-.2-.86-.2-1.41V13.6h-6.09v13.67c0,1.39,.17,2.59,.51,3.59,.34,.99,.82,1.8,1.45,2.44,.62,.62,1.37,1.09,2.23,1.39,.87,.29,1.83,.43,2.87,.43,1.29,0,2.42-.24,3.38-.72,.92-.47,1.69-1.12,2.33-1.93l.17,2.26h5.74V13.6h-6.13v14.89Z"/><path class="cls-1" d="M207.44,15.5c-.51-.6-1.08-1.09-1.72-1.46-.91-.55-1.98-.82-3.2-.82-1.33,0-2.51,.26-3.54,.78s-1.89,1.26-2.6,2.23c-.69,.95-1.22,2.09-1.58,3.42-.35,1.32-.53,2.77-.53,4.38v.41c0,1.54,.18,2.96,.53,4.26,.36,1.3,.89,2.43,1.58,3.4,.69,.96,1.54,1.71,2.56,2.25,1.03,.53,2.21,.8,3.54,.8,1.24,0,2.31-.27,3.22-.8,.79-.47,1.48-1.1,2.06-1.87l.3,2.28h5.51V4.73h-6.13V15.5Zm-1.17,14.26c-.59,.42-1.33,.62-2.25,.62-.68,0-1.25-.15-1.72-.45-.47-.31-.85-.74-1.13-1.29-.29-.55-.49-1.18-.62-1.89-.12-.72-.18-1.49-.18-2.32v-.41c0-.86,.07-1.65,.2-2.38,.14-.74,.36-1.39,.65-1.93,.3-.55,.68-.97,1.15-1.27,.47-.31,1.04-.47,1.7-.47s1.26,.12,1.76,.37c.5,.23,.91,.58,1.23,1.04,.15,.2,.27,.43,.39,.67v8.28c-.29,.6-.68,1.08-1.17,1.44Z"/></g><path class="cls-1" d="M20.74,0C9.28,0,0,9.28,0,20.73s9.28,20.73,20.74,20.73,20.73-9.28,20.73-20.73S32.19,0,20.74,0ZM10.62,20.73c0-5.58,4.54-10.11,10.11-10.11s10.11,4.54,10.11,10.11-4.54,10.11-10.11,10.11-10.11-4.54-10.11-10.11Zm21.88,4.09h0l-.3-.3c.39-1.19,.61-2.47,.61-3.8s-.22-2.6-.61-3.8l5.06-5.06c1.42,2.64,2.23,5.65,2.23,8.85s-.81,6.22-2.23,8.85l-4.76-4.76Zm-2.92-20.63l-5.06,5.06c-1.19-.39-2.47-.61-3.8-.61s-2.6,.22-3.8,.61l-5.06-5.06c2.64-1.42,5.65-2.23,8.85-2.23s6.21,.81,8.85,2.23ZM4.2,11.88l5.06,5.06c-.39,1.19-.61,2.47-.61,3.8s.22,2.6,.61,3.8l-.3,.3h0s-2.96,2.96-2.96,2.96l-1.81,1.81c-1.42-2.64-2.23-5.65-2.23-8.85s.81-6.21,2.23-8.85Zm7.68,25.39l5.06-5.06c1.19,.39,2.47,.61,3.8,.61s2.6-.22,3.8-.61l5.06,5.06c-2.64,1.42-5.65,2.23-8.85,2.23s-6.21-.81-8.85-2.23Z"/></g></g></svg>