<?xml version="1.0" encoding="UTF-8"?><svg id="Layer_2" xmlns="http://www.w3.org/2000/svg" viewBox="0 0 731.61 201.9"><defs><style>.cls-1{fill:#76b900;}</style></defs><g id="Layer_1-2"><g><path class="cls-1" d="M0,156.02V0H49.94c7.01,0,13.42,1.04,19.23,3.11,5.81,2.07,10.83,5.06,15.05,8.96,4.22,3.9,7.49,8.68,9.8,14.34,2.31,5.66,3.46,11.99,3.46,19,0,5.58-1.31,11.19-3.94,16.85-2.63,5.66-7.13,10.71-13.5,15.17,7.17,4.46,12.19,9.68,15.05,15.65,2.87,5.97,4.3,11.99,4.3,18.04,0,7.01-1.12,13.3-3.34,18.88-2.23,5.58-5.34,10.27-9.32,14.1-3.98,3.82-8.8,6.77-14.46,8.84-5.65,2.07-11.91,3.11-18.76,3.11H0ZM30.58,27.48v38.95h17.44c5.57,0,10.16-1.87,13.74-5.61,3.58-3.74,5.38-8.4,5.38-13.98s-1.79-10.19-5.38-13.86c-3.58-3.66-8.17-5.5-13.74-5.5H30.58Zm0,64.75v35.84h21.03c5.1,0,9.2-1.75,12.31-5.26,3.11-3.5,4.66-7.88,4.66-13.14s-1.55-9.28-4.66-12.54c-3.11-3.26-7.21-4.9-12.31-4.9H30.58Z"/><path class="cls-1" d="M123.53,0h88.17V28.19h-57.82v35.84h52.8v27.24h-52.8v36.32h60.21v28.43H123.53V0Z"/><path class="cls-1" d="M235.83,138.82v-9.08c0-3.35,.04-6.81,.12-10.39,.08-3.58,.16-7.13,.24-10.63,.08-3.5,.2-6.77,.36-9.8L242.28,0h33.21l23.65,75.74c2.55,8.12,4.9,15.77,7.05,22.94s3.23,12.82,3.23,16.96h1.19c.16-3.98,1.31-9.59,3.46-16.85,2.15-7.25,4.58-14.85,7.29-22.82L346.21,0h33.21l3.82,98.92c.16,3.03,.28,6.29,.36,9.8,.08,3.51,.16,7.05,.24,10.63,.08,3.58,.12,7.05,.12,10.39v26.28h-30.34v-42.29l-.48-18.16c-.16-3.18-.24-5.77-.24-7.77v-6.33c0-4.3,.08-8.32,.24-12.07,.16-3.74,.4-6.97,.72-9.68l-.96-.24c-.8,4.46-2.19,9.96-4.18,16.49-1.99,6.53-4.26,13.86-6.81,21.98l-17.92,58.06h-28.19l-17.92-58.78c-2.39-8.12-4.54-15.49-6.45-22.1-1.91-6.61-3.11-12.22-3.58-16.84l-.96,.48c.16,1.59,.24,3.43,.24,5.5v18.16c0,3.98-.08,8.28-.24,12.9l-.48,18.4v42.29h-30.58v-17.2Z"/><path class="cls-1" d="M465.68,158.41c-5.42,0-10.16-.72-14.22-2.15s-7.61-3.42-10.63-5.97v50.89h-29.39V36.56h24.61l1.43,9.56c3.18-3.66,7.21-6.61,12.07-8.84,4.86-2.23,10.87-3.35,18.04-3.35,10.83,0,19.83,3.19,27,9.56,7.17,6.37,11.86,14.81,14.1,25.33,.79,4.14,1.35,8.09,1.67,11.83,.32,3.74,.48,8.88,.48,15.41s-.16,11.87-.48,16.01c-.32,4.14-.88,8.21-1.67,12.19-2.23,10.51-7.21,18.84-14.93,24.97-7.73,6.13-17.08,9.2-28.07,9.2Zm-4.54-98.68c-5.26,0-9.52,1.52-12.78,4.54-3.27,3.03-5.46,7.09-6.57,12.19-.48,2.39-.76,5.34-.84,8.84-.08,3.51-.12,7.09-.12,10.75s.04,7.17,.12,10.51c.08,3.35,.36,6.21,.84,8.6,1.11,5.1,3.3,9.2,6.57,12.31,3.26,3.11,7.53,4.66,12.78,4.66s9.56-1.55,12.9-4.66c3.35-3.11,5.5-7.21,6.45-12.31,.48-2.39,.8-5.26,.96-8.6,.16-3.35,.24-6.85,.24-10.51s-.08-7.25-.24-10.75c-.16-3.5-.48-6.45-.96-8.84-.96-5.1-3.11-9.16-6.45-12.19-3.34-3.02-7.65-4.54-12.9-4.54Z"/><path class="cls-1" d="M583.71,86.97c4.3,1.59,8.28,3.31,11.95,5.14,3.66,1.83,6.81,4.1,9.44,6.81,2.63,2.71,4.7,5.97,6.21,9.8,1.51,3.82,2.27,8.52,2.27,14.1,0,5.26-1,10.04-2.99,14.34-1.99,4.3-4.86,8.05-8.6,11.23-3.75,3.19-8.17,5.66-13.26,7.41-5.1,1.75-10.75,2.63-16.96,2.63-11.15,0-20.67-2.27-28.55-6.81-7.88-4.54-13.58-10.71-17.08-18.52l21.03-17.44c2.87,5.26,6.29,9.28,10.27,12.07,3.98,2.79,8.92,4.18,14.81,4.18,3.18,0,5.85-.68,8-2.03,2.15-1.35,3.23-3.46,3.23-6.33,0-3.02-1.12-5.33-3.35-6.93-2.23-1.59-5.89-3.35-10.99-5.26l-9.32-3.35c-10.99-4.14-18.6-9.08-22.82-14.81-4.22-5.73-6.33-13.22-6.33-22.46,0-5.26,1.03-10.11,3.11-14.58,2.07-4.46,4.94-8.36,8.6-11.71,3.66-3.35,8-5.93,13.02-7.77,5.02-1.83,10.55-2.75,16.61-2.75,14.34,0,24.77,3.43,31.3,10.27,6.53,6.85,9.8,15.85,9.8,27v2.87c0,.96-.08,1.91-.24,2.87h-29.39c.16-1.11,.24-2.31,.24-3.58,0-4.78-1.12-8.2-3.34-10.27-2.23-2.07-5.18-3.11-8.84-3.11s-6.69,1.08-8.6,3.23-2.87,4.58-2.87,7.29c0,3.19,1.23,5.73,3.7,7.65,2.47,1.91,6.17,3.74,11.11,5.5l8.84,3.35Z"/><path class="cls-1" d="M648.94,201.9c-1.43,0-3.15-.04-5.14-.12-1.99-.08-4.82-.52-8.48-1.31v-27c3.02,.32,6.53,.48,10.51,.48,3.66,0,6.73-.76,9.2-2.27,2.47-1.52,4.9-4.9,7.29-10.15l3.35-7.41c-2.71-5.57-5.42-11.27-8.12-17.08-2.71-5.81-5.34-11.47-7.88-16.96-2.55-5.5-4.94-10.75-7.17-15.77-2.23-5.02-4.14-9.44-5.73-13.26-2.87-6.85-4.82-13.3-5.85-19.35-1.04-6.05-1.55-12.1-1.55-18.16v-16.96h30.34v16.96c0,4.14,.4,8.64,1.19,13.5,.8,4.86,2.15,9.84,4.06,14.93,2.07,5.58,4.74,12.27,8,20.07,3.26,7.81,5.69,16.33,7.29,25.57h.96c.96-4.94,2.11-9.68,3.46-14.22,1.35-4.54,2.75-8.76,4.18-12.66,1.43-3.9,2.83-7.44,4.18-10.63,1.35-3.18,2.43-5.89,3.23-8.12,2.07-5.26,3.46-10.27,4.18-15.05s1.08-9.24,1.08-13.38v-16.96h30.11v16.96c0,6.06-.52,12.23-1.55,18.52-1.04,6.29-2.91,12.63-5.62,19-1.91,4.62-4.3,10.36-7.17,17.2-2.87,6.85-5.94,14.06-9.2,21.62-3.27,7.57-6.57,15.05-9.92,22.46-3.35,7.41-6.45,14.06-9.32,19.95-2.23,4.62-4.58,8.72-7.05,12.31-2.47,3.58-5.3,6.69-8.48,9.32-3.19,2.63-6.77,4.62-10.75,5.97-3.98,1.35-8.52,2.03-13.62,2.03Z"/></g></g></svg>