<?xml version="1.0" encoding="UTF-8"?><svg id="Layer_2" xmlns="http://www.w3.org/2000/svg" viewBox="0 0 425.01 56.93"><defs><style>.cls-1{fill:#63837b;}</style></defs><g id="Layer_1-2"><path class="cls-1" d="M73.69,45.69V8.22h13.12c4.55,0,7.99,.87,10.34,2.61,2.35,1.74,3.53,4.29,3.53,7.66,0,1.84-.47,3.45-1.42,4.85s-2.26,2.42-3.94,3.08c1.92,.48,3.44,1.45,4.54,2.91s1.66,3.24,1.66,5.35c0,3.6-1.15,6.33-3.45,8.18s-5.58,2.8-9.83,2.83h-14.56Zm7.72-21.77h5.71c3.89-.07,5.84-1.62,5.84-4.66,0-1.7-.49-2.92-1.48-3.67-.99-.75-2.54-1.12-4.67-1.12h-5.4v9.44Zm0,5.46v10.11h6.61c1.82,0,3.24-.43,4.26-1.3s1.53-2.06,1.53-3.59c0-3.43-1.78-5.17-5.33-5.22h-7.08Zm48.45,.08h-14.82v10.04h17.4v6.2h-25.11V8.22h25.06v6.25h-17.34v8.93h14.82v6.05Zm17.19-21.23l9.62,27.17,9.57-27.17h10.14V45.69h-7.75v-10.24l.77-17.68-10.11,27.92h-5.3l-10.09-27.89,.77,17.65v10.24h-7.72V8.22h10.09Zm60.65,23.8c0,4.29-.97,7.72-2.92,10.31s-4.58,3.87-7.89,3.87c-2.81,0-5.09-.98-6.82-2.93v13.12h-7.44V17.84h6.9l.26,2.73c1.8-2.16,4.15-3.24,7.05-3.24,3.43,0,6.1,1.27,8,3.81s2.86,6.04,2.86,10.5v.39Zm-7.44-.54c0-2.59-.46-4.59-1.38-6-.92-1.41-2.25-2.11-4-2.11-2.33,0-3.94,.89-4.81,2.68v11.4c.91,1.84,2.53,2.75,4.86,2.75,3.55,0,5.33-2.91,5.33-8.72Zm27.12,6.51c0-.91-.45-1.62-1.35-2.15-.9-.52-2.35-.99-4.34-1.4-6.62-1.39-9.93-4.2-9.93-8.44,0-2.47,1.02-4.53,3.07-6.19s4.73-2.48,8.04-2.48c3.53,0,6.36,.83,8.48,2.5,2.12,1.66,3.18,3.83,3.18,6.48h-7.44c0-1.06-.34-1.94-1.03-2.64-.69-.69-1.76-1.04-3.22-1.04-1.25,0-2.22,.28-2.91,.85-.69,.57-1.03,1.29-1.03,2.16,0,.82,.39,1.49,1.17,1.99,.78,.51,2.1,.94,3.95,1.31,1.85,.37,3.41,.79,4.68,1.25,3.93,1.44,5.89,3.94,5.89,7.49,0,2.54-1.09,4.59-3.27,6.16-2.18,1.57-4.99,2.35-8.44,2.35-2.33,0-4.4-.42-6.21-1.25-1.81-.83-3.23-1.97-4.26-3.42-1.03-1.45-1.54-3.01-1.54-4.7h7.05c.07,1.32,.56,2.33,1.47,3.04s2.13,1.05,3.65,1.05c1.42,0,2.5-.27,3.23-.81s1.09-1.25,1.09-2.12Zm22.41-2.83l5.15-17.32h7.98l-11.19,32.17-.62,1.47c-1.66,3.64-4.41,5.46-8.23,5.46-1.08,0-2.18-.16-3.29-.49v-5.64l1.13,.03c1.41,0,2.46-.21,3.15-.64,.69-.43,1.24-1.14,1.63-2.14l.88-2.29-9.75-27.92h8l5.17,17.32Zm29.67,10.52V8.22h13.12c4.55,0,7.99,.87,10.34,2.61,2.35,1.74,3.53,4.29,3.53,7.66,0,1.84-.47,3.45-1.42,4.85s-2.26,2.42-3.94,3.08c1.92,.48,3.44,1.45,4.54,2.91s1.66,3.24,1.66,5.35c0,3.6-1.15,6.33-3.45,8.18s-5.58,2.8-9.83,2.83h-14.56Zm7.72-21.77h5.71c3.89-.07,5.84-1.62,5.84-4.66,0-1.7-.49-2.92-1.48-3.67-.99-.75-2.54-1.12-4.67-1.12h-5.4v9.44Zm0,5.46v10.11h6.61c1.82,0,3.24-.43,4.26-1.3s1.53-2.06,1.53-3.59c0-3.43-1.78-5.17-5.33-5.22h-7.08Zm42.1,13.48c-1.84,2.23-4.38,3.35-7.62,3.35-2.99,0-5.26-.86-6.83-2.57s-2.37-4.23-2.41-7.54V17.84h7.44v18.01c0,2.9,1.32,4.35,3.96,4.35s4.25-.88,5.2-2.63V17.84h7.46v27.84h-7l-.21-2.83Zm11.66-11.3c0-4.34,.97-7.8,2.92-10.37,1.95-2.57,4.61-3.86,7.99-3.86,2.71,0,4.95,1.01,6.72,3.04V6.16h7.46V45.69h-6.72l-.36-2.96c-1.85,2.32-4.24,3.47-7.15,3.47-3.28,0-5.91-1.29-7.89-3.87-1.98-2.58-2.97-6.17-2.97-10.77Zm7.44,.55c0,2.61,.45,4.61,1.36,6,.91,1.39,2.23,2.09,3.96,2.09,2.3,0,3.92-.97,4.86-2.91v-11c-.93-1.94-2.53-2.91-4.81-2.91-3.58,0-5.38,2.91-5.38,8.74Zm22.26-.55c0-4.34,.97-7.8,2.92-10.37,1.95-2.57,4.61-3.86,7.99-3.86,2.71,0,4.95,1.01,6.72,3.04V6.16h7.46V45.69h-6.72l-.36-2.96c-1.85,2.32-4.24,3.47-7.15,3.47-3.28,0-5.91-1.29-7.89-3.87-1.98-2.58-2.97-6.17-2.97-10.77Zm7.44,.55c0,2.61,.45,4.61,1.36,6,.91,1.39,2.23,2.09,3.96,2.09,2.3,0,3.92-.97,4.86-2.91v-11c-.93-1.94-2.53-2.91-4.81-2.91-3.58,0-5.38,2.91-5.38,8.74Zm33.81,3.05l5.15-17.32h7.98l-11.19,32.17-.62,1.47c-1.66,3.64-4.41,5.46-8.23,5.46-1.08,0-2.18-.16-3.29-.49v-5.64l1.13,.03c1.41,0,2.46-.21,3.15-.64,.69-.43,1.24-1.14,1.63-2.14l.88-2.29-9.75-27.92h8l5.17,17.32ZM27.28,0C12.21,0,0,12.21,0,27.27s12.21,27.27,27.28,27.27,27.27-12.21,27.27-27.27S42.35,0,27.28,0Zm-.04,2.58c4.21,0,8.17,1.07,11.64,2.93h.03l-6.66,6.66c-1.57-.51-3.25-.8-5-.8s-3.42,.29-5,.8l-6.66-6.66c3.47-1.87,7.43-2.93,11.64-2.93Zm-15.06,29.7l-.39,.39-3.89,3.89-2.38,2.38c-1.87-3.47-2.93-7.43-2.93-11.64s1.07-8.17,2.93-11.64v-.04s6.67,6.66,6.67,6.66c-.51,1.57-.8,3.25-.8,5s.29,3.42,.8,5Zm15.11,19.68c-4.21,0-8.17-1.07-11.64-2.93h-.03l6.66-6.66c1.57,.51,3.25,.8,5,.8s3.42-.29,5-.8l6.66,6.66c-3.47,1.87-7.43,2.93-11.64,2.93Zm-.03-11.39c-7.33,0-13.3-5.97-13.3-13.3s5.97-13.3,13.3-13.3,13.3,5.97,13.3,13.3-5.97,13.3-13.3,13.3Zm15.48-7.95v.03l-.39-.39c.51-1.57,.8-3.25,.8-5s-.29-3.42-.8-5l6.66-6.66c1.87,3.47,2.93,7.43,2.93,11.64s-1.07,8.18-2.93,11.64l-6.26-6.26Z"/></g></svg>