<?xml version="1.0" encoding="UTF-8"?><svg id="Layer_2" xmlns="http://www.w3.org/2000/svg" viewBox="0 0 115.82 148.39"><defs><style>.cls-1{fill:#63837b;}</style></defs><g id="Layer_1-2"><g><path class="cls-1" d="M56.5,0c-17.16,0-31.06,13.9-31.06,31.04s13.9,31.04,31.06,31.04,31.04-13.9,31.04-31.04S73.64,0,56.5,0Zm-15.15,31.04c0-8.36,6.8-15.14,15.14-15.14s15.14,6.8,15.14,15.14-6.8,15.14-15.14,15.14-15.14-6.8-15.14-15.14Zm32.76,6.12h0l-.45-.45c.58-1.78,.91-3.7,.91-5.69s-.33-3.89-.91-5.69l7.58-7.58c2.13,3.95,3.34,8.46,3.34,13.25s-1.21,9.31-3.34,13.25l-7.13-7.13v.03Zm-4.37-30.89l-7.58,7.58c-1.78-.58-3.7-.91-5.69-.91s-3.89,.33-5.69,.91l-7.58-7.58c3.95-2.13,8.46-3.34,13.25-3.34s9.3,1.21,13.25,3.34h.03ZM31.73,17.79l7.58,7.58c-.58,1.78-.91,3.7-.91,5.69s.33,3.89,.91,5.69l-.45,.45h0l-4.43,4.43-2.71,2.71c-2.13-3.95-3.34-8.46-3.34-13.25s1.21-9.3,3.34-13.25v-.04Zm11.52,38.02l7.58-7.58c1.78,.58,3.7,.91,5.69,.91s3.89-.33,5.69-.91l7.58,7.58c-3.95,2.13-8.46,3.34-13.25,3.34s-9.3-1.21-13.25-3.34h-.03Z"/><g><path class="cls-1" d="M0,101.32v-23.68H8.03c2.78,0,4.89,.55,6.33,1.65,1.44,1.1,2.16,2.71,2.16,4.84,0,1.16-.29,2.18-.87,3.07-.58,.88-1.38,1.53-2.41,1.94,1.18,.3,2.1,.92,2.78,1.84,.68,.92,1.02,2.05,1.02,3.38,0,2.28-.7,4-2.11,5.17-1.41,1.17-3.41,1.77-6.02,1.79H0Zm4.72-13.76h3.5c2.38-.04,3.57-1.02,3.57-2.94,0-1.07-.3-1.85-.91-2.32-.6-.47-1.56-.71-2.86-.71h-3.31v5.97Zm0,3.45v6.39h4.05c1.11,0,1.98-.27,2.61-.82,.62-.55,.94-1.3,.94-2.27,0-2.17-1.09-3.27-3.26-3.3H4.72Z"/><path class="cls-1" d="M34.38,91.06h-9.07v6.34h10.65v3.92h-15.37v-23.68h15.34v3.95h-10.61v5.64h9.07v3.82Z"/><path class="cls-1" d="M44.9,77.64l5.89,17.17,5.86-17.17h6.21v23.68h-4.74v-6.47l.47-11.17-6.19,17.64h-3.24l-6.17-17.63,.47,11.16v6.47h-4.72v-23.68h6.17Z"/><path class="cls-1" d="M82.02,92.69c0,2.71-.6,4.88-1.79,6.51-1.19,1.63-2.8,2.45-4.83,2.45-1.72,0-3.11-.62-4.17-1.85v8.29h-4.55v-24.36h4.22l.16,1.72c1.1-1.37,2.54-2.05,4.32-2.05,2.1,0,3.73,.8,4.9,2.41,1.17,1.6,1.75,3.82,1.75,6.63v.24Zm-4.55-.34c0-1.64-.28-2.9-.84-3.79-.56-.89-1.38-1.33-2.45-1.33-1.43,0-2.41,.56-2.95,1.69v7.2c.56,1.16,1.55,1.74,2.98,1.74,2.17,0,3.26-1.84,3.26-5.51Z"/><path class="cls-1" d="M94.07,96.46c0-.57-.28-1.03-.83-1.36-.55-.33-1.44-.63-2.65-.89-4.05-.88-6.08-2.66-6.08-5.33,0-1.56,.63-2.86,1.88-3.91,1.25-1.05,2.9-1.57,4.92-1.57,2.16,0,3.89,.53,5.19,1.58,1.3,1.05,1.95,2.42,1.95,4.1h-4.55c0-.67-.21-1.23-.63-1.67-.42-.44-1.08-.66-1.97-.66-.77,0-1.36,.18-1.78,.54-.42,.36-.63,.81-.63,1.37,0,.52,.24,.94,.72,1.26,.48,.32,1.28,.6,2.42,.83,1.13,.23,2.09,.5,2.87,.79,2.4,.91,3.61,2.49,3.61,4.73,0,1.6-.67,2.9-2,3.89-1.33,.99-3.06,1.49-5.17,1.49-1.43,0-2.7-.26-3.8-.79-1.11-.53-1.98-1.25-2.61-2.16-.63-.92-.94-1.91-.94-2.97h4.32c.04,.83,.34,1.47,.9,1.92,.56,.44,1.3,.67,2.24,.67,.87,0,1.53-.17,1.98-.51,.45-.34,.67-.79,.67-1.34Z"/><path class="cls-1" d="M107.79,94.67l3.15-10.94h4.88l-6.85,20.33-.38,.93c-1.02,2.3-2.7,3.45-5.04,3.45-.66,0-1.33-.1-2.02-.31v-3.56l.69,.02c.86,0,1.5-.14,1.93-.41,.43-.27,.76-.72,1-1.35l.54-1.45-5.97-17.64h4.9l3.17,10.94Z"/><path class="cls-1" d="M17.39,141.28v-23.68h8.03c2.78,0,4.89,.55,6.33,1.65,1.44,1.1,2.16,2.71,2.16,4.84,0,1.16-.29,2.18-.87,3.07-.58,.88-1.38,1.53-2.41,1.94,1.18,.3,2.1,.92,2.78,1.84,.68,.92,1.02,2.05,1.02,3.38,0,2.28-.7,4-2.11,5.17-1.41,1.17-3.41,1.77-6.02,1.79h-8.91Zm4.72-13.76h3.5c2.38-.04,3.57-1.02,3.57-2.94,0-1.07-.3-1.85-.91-2.32-.6-.47-1.56-.71-2.86-.71h-3.31v5.97Zm0,3.45v6.39h4.05c1.11,0,1.98-.27,2.61-.82,.62-.55,.94-1.3,.94-2.27,0-2.17-1.09-3.27-3.26-3.3h-4.33Z"/><path class="cls-1" d="M47.88,139.5c-1.12,1.41-2.68,2.11-4.66,2.11-1.83,0-3.22-.54-4.18-1.63-.96-1.08-1.45-2.67-1.47-4.76v-11.53h4.55v11.38c0,1.83,.81,2.75,2.43,2.75s2.6-.55,3.18-1.66v-12.47h4.57v17.59h-4.28l-.13-1.79Z"/><path class="cls-1" d="M55.01,132.36c0-2.74,.6-4.93,1.79-6.55,1.19-1.63,2.82-2.44,4.89-2.44,1.66,0,3.03,.64,4.11,1.92v-8.98h4.57v24.98h-4.11l-.22-1.87c-1.13,1.46-2.59,2.2-4.38,2.2-2.01,0-3.61-.82-4.83-2.45-1.21-1.63-1.82-3.9-1.82-6.81Zm4.55,.35c0,1.65,.28,2.92,.83,3.79,.56,.88,1.36,1.32,2.43,1.32,1.41,0,2.4-.61,2.98-1.84v-6.95c-.57-1.23-1.55-1.84-2.95-1.84-2.19,0-3.29,1.84-3.29,5.52Z"/><path class="cls-1" d="M73.19,132.36c0-2.74,.6-4.93,1.79-6.55,1.19-1.63,2.82-2.44,4.89-2.44,1.66,0,3.03,.64,4.11,1.92v-8.98h4.57v24.98h-4.11l-.22-1.87c-1.13,1.46-2.59,2.2-4.38,2.2-2.01,0-3.61-.82-4.83-2.45-1.21-1.63-1.82-3.9-1.82-6.81Zm4.55,.35c0,1.65,.28,2.92,.83,3.79,.56,.88,1.36,1.32,2.43,1.32,1.41,0,2.4-.61,2.98-1.84v-6.95c-.57-1.23-1.55-1.84-2.95-1.84-2.19,0-3.29,1.84-3.29,5.52Z"/><path class="cls-1" d="M98.43,134.63l3.15-10.94h4.88l-6.85,20.33-.38,.93c-1.02,2.3-2.7,3.45-5.04,3.45-.66,0-1.33-.1-2.02-.31v-3.56l.69,.02c.86,0,1.5-.14,1.93-.41,.43-.27,.76-.72,1-1.35l.54-1.45-5.97-17.64h4.9l3.17,10.94Z"/></g></g></g></svg>