<?xml version="1.0" encoding="UTF-8"?><svg id="Layer_2" xmlns="http://www.w3.org/2000/svg" viewBox="0 0 158.48 144.75"><defs><style>.cls-1{opacity:.1;}.cls-1,.cls-2{fill:#98c8bc;}.cls-3{fill:#fff;}</style></defs><g id="Layer_1-2"><g><path class="cls-1" d="M79.24,0l79.24,144.75H0L79.24,0Z"/><path class="cls-2" d="M79.24,40l46.33,84.75H32.91L79.24,40Z"/><path class="cls-3" d="M82.84,75.88l-.89,23.51h-6.02l-.89-23.51h7.8Zm-8.02,30.8c0-1.05,.38-1.93,1.12-2.65,.75-.72,1.74-1.08,2.98-1.08s2.2,.36,2.93,1.08c.75,.72,1.12,1.6,1.12,2.65s-.38,1.95-1.12,2.67c-.73,.7-1.71,1.05-2.93,1.05s-2.23-.35-2.98-1.05c-.75-.72-1.12-1.61-1.12-2.67Z"/></g></g></svg>