<svg width="6" height="12" viewBox="0 0 6 12" fill="none" xmlns="http://www.w3.org/2000/svg">
    <path d="M3.00004 11.3995C3.66279 11.3995 4.20005 10.8623 4.20005 10.1995C4.20005 9.53677 3.66279 8.99951 3.00004 8.99951C2.3373 8.99951 1.80005 9.53677 1.80005 10.1995C1.80005 10.8623 2.3373 11.3995 3.00004 11.3995Z" fill="#98C8BC"/>
    <path fill-rule="evenodd" clip-rule="evenodd" d="M3.00019 9.29188C2.49882 9.29188 2.09238 9.69832 2.09238 10.1997C2.09238 10.701 2.49882 11.1075 3.00019 11.1075C3.50155 11.1075 3.90799 10.701 3.90799 10.1997C3.90799 9.69832 3.50155 9.29188 3.00019 9.29188ZM1.5 10.1997C1.5 9.37128 2.17157 8.69971 3 8.69971C3.82842 8.69971 4.5 9.37128 4.5 10.1997C4.5 11.0281 3.82842 11.6997 3 11.6997C2.17157 11.6997 1.5 11.0281 1.5 10.1997Z" fill="#F4F4F6"/>
    <path fill-rule="evenodd" clip-rule="evenodd" d="M2.69995 6.58545H3.29995V9.58545H2.69995V6.58545Z" fill="#98C8BC"/>
    <path d="M3 6.8999C4.65684 6.8999 6 5.55678 6 3.89991C6 2.24305 4.65684 0.899902 3 0.899902C1.34315 0.899902 0 2.24305 0 3.89991C0 5.55678 1.34315 6.8999 3 6.8999Z" fill="#98C8BC"/>
    <path d="M2.99997 4.8C3.49701 4.8 3.89998 4.39703 3.89998 3.9C3.89998 3.40294 3.49701 3 2.99997 3C2.50292 3 2.09998 3.40294 2.09998 3.9C2.09998 4.39703 2.50292 4.8 2.99997 4.8Z" fill="#F4F4F6"/>
</svg>
