<?xml version="1.0" encoding="UTF-8"?><svg id="Layer_2" xmlns="http://www.w3.org/2000/svg" viewBox="0 0 93.89 58"><defs><style>.cls-1{fill:#97c8bb;}</style></defs><g id="Layer_2-2"><path class="cls-1" d="M69.54,47.89C61,12.34,23.1,22.91,23.49,56.16c0,.49,.2,.96,.54,1.3,.35,.35,.81,.54,1.3,.54h43.23c.49,0,.95-.2,1.3-.54,.34-.35,.54-.81,.54-1.3,0-2.78-.29-5.55-.86-8.27h0Zm5.9-22.11c-4.01,.05-7.84,1.64-10.71,4.44,5.23,5.96,8.42,13.44,9.1,21.35h18.23c.49,0,.95-.2,1.3-.54,.35-.35,.54-.81,.54-1.3,0-13.21-8.27-23.95-18.45-23.95Zm-48.58,7.31c.71-1.01,1.48-1.97,2.32-2.87C16.1,18.41-.32,31.81,0,49.73c0,.49,.2,.96,.54,1.3,.34,.35,.81,.54,1.3,.54H20.06c.63-6.65,2.98-13.01,6.8-18.48h0ZM46.66,0c6.42,0,11.63,5.21,11.63,11.63s-5.21,11.63-11.63,11.63-11.63-5.21-11.63-11.63S40.24,0,46.66,0Zm27.56,5.17c4.84,0,8.76,3.92,8.76,8.76s-3.92,8.76-8.76,8.76-8.76-3.92-8.76-8.76,3.92-8.76,8.76-8.76Zm-55.13,0c4.84,0,8.76,3.92,8.76,8.76s-3.92,8.76-8.76,8.76-8.76-3.92-8.76-8.76,3.92-8.76,8.76-8.76Z"/></g></svg>