<?xml version="1.0" encoding="UTF-8"?><svg id="Layer_2" xmlns="http://www.w3.org/2000/svg" viewBox="0 0 73 64"><defs><style>.cls-1{fill:#97c8bb;}</style></defs><g id="Layer_2-2"><path class="cls-1" d="M66.58,17.07h-14.97V6.4c0-3.53-2.88-6.4-6.42-6.4H6.42C2.88,0,0,2.87,0,6.4V32c0,3.53,2.88,6.4,6.42,6.4h2.14v6.4c0,1.71,1.91,2.71,3.32,1.77l9.51-6.32v8.81c0,3.53,2.88,6.4,6.42,6.4h21.02l12.29,8.17c1.41,.94,3.32-.07,3.32-1.77v-6.4h2.14c3.54,0,6.42-2.87,6.42-6.4V23.47c0-3.53-2.88-6.4-6.42-6.4h0ZM22.34,34.49s0,0,0,0l-9.5,6.31v-4.55c0-1.18-.96-2.13-2.14-2.13H6.42c-1.18,0-2.14-.96-2.14-2.13V6.4c0-1.18,.96-2.13,2.14-2.13H45.2c1.18,0,2.14,.96,2.14,2.13V32c0,1.18-.96,2.13-2.14,2.13H23.53c-.41,0-.84,.13-1.19,.36h0Z"/></g></svg>