<?xml version="1.0" encoding="UTF-8"?><svg id="Layer_2" xmlns="http://www.w3.org/2000/svg" viewBox="0 0 72 72"><defs><style>.cls-1{fill:#97c8bb;}</style></defs><g id="Layer_2-2"><path class="cls-1" d="M40,13c0,7.18-6.04,13-13.5,13s-13.5-5.82-13.5-13S19.04,0,26.5,0s13.5,5.82,13.5,13Zm-.04,27.34c2.97-3.01,6.91-4.66,11.13-4.66h.91c-2.4-5.8-7.76-10-14.27-10.68-2.91,2.78-6.79,4.43-11.13,4.43s-8.22-1.7-11.13-4.43C6.79,25.91,0,33.24,0,42.16v17.84H38.36c-4.17-5.97-3.71-14.26,1.6-19.66h0Zm31.21,26.86l-9.85-9.85c3.07-4.9,2.45-11.39-1.76-15.65-4.95-4.95-13.1-4.95-17.99,.11-4.84,4.95-4.73,13.04,.23,17.88,4.27,4.16,10.71,4.67,15.54,1.65l9.85,9.85c1.08,1.08,2.9,1.08,3.99,0,1.08-1.08,1.14-2.9,0-3.98h0Zm-14.41-10.42c-3.36,3.36-8.88,3.36-12.3,0-3.36-3.36-3.36-8.88,0-12.3,3.36-3.36,8.88-3.36,12.3,0,3.42,3.42,3.42,8.94,0,12.3Z"/></g></svg>