<?xml version="1.0" encoding="UTF-8"?><svg id="Layer_2" xmlns="http://www.w3.org/2000/svg" viewBox="0 0 64 64"><defs><style>.cls-1{fill:#97c8bb;}</style></defs><g id="Layer_2-2"><path class="cls-1" d="M38.1,0l1.45,8c1.41,.44,2.78,1.02,4.07,1.69l6.71-4.62,8.62,8.62-4.64,6.69c.68,1.3,1.24,2.66,1.69,4.07l8,1.45v12.19l-8,1.45c-.45,1.42-1.04,2.77-1.71,4.07l4.67,6.69-8.62,8.62-6.69-4.62c-1.3,.68-2.68,1.24-4.1,1.69l-1.45,8h-12.19l-1.45-8c-1.42-.45-2.77-1.01-4.07-1.69l-6.69,4.62-8.62-8.62,4.64-6.69c-.67-1.29-1.25-2.64-1.69-4.05l-8.02-1.48v-12.19l8.02-1.45c.44-1.41,1-2.76,1.67-4.05l-4.62-6.71L13.69,5.07l6.69,4.62c1.3-.68,2.65-1.25,4.07-1.69L25.9,0h12.19Zm-6.1,18.29c-7.58,0-13.71,6.14-13.71,13.71s6.14,13.71,13.71,13.71,13.71-6.14,13.71-13.71-6.14-13.71-13.71-13.71Z"/></g></svg>